<svg width="738" height="798" viewBox="0 0 738 798" fill="none" xmlns="http://www.w3.org/2000/svg">
<rect width="738" height="798" fill="#0F67A6"/>
<rect width="649" height="684" transform="translate(44 57)" fill="#0F67A6"/>
<path d="M132.016 172.196C129.72 172.196 127.835 171.655 126.36 170.572C124.885 169.471 124.092 167.903 123.98 165.868H129.832C129.888 166.559 130.093 167.063 130.448 167.38C130.803 167.697 131.26 167.856 131.82 167.856C132.324 167.856 132.735 167.735 133.052 167.492C133.388 167.231 133.556 166.876 133.556 166.428C133.556 165.849 133.285 165.401 132.744 165.084C132.203 164.767 131.325 164.412 130.112 164.02C128.824 163.591 127.779 163.18 126.976 162.788C126.192 162.377 125.501 161.789 124.904 161.024C124.325 160.24 124.036 159.223 124.036 157.972C124.036 156.703 124.353 155.62 124.988 154.724C125.623 153.809 126.5 153.119 127.62 152.652C128.74 152.185 130.009 151.952 131.428 151.952C133.724 151.952 135.553 152.493 136.916 153.576C138.297 154.64 139.035 156.143 139.128 158.084H133.164C133.145 157.487 132.959 157.039 132.604 156.74C132.268 156.441 131.829 156.292 131.288 156.292C130.877 156.292 130.541 156.413 130.28 156.656C130.019 156.899 129.888 157.244 129.888 157.692C129.888 158.065 130.028 158.392 130.308 158.672C130.607 158.933 130.971 159.167 131.4 159.372C131.829 159.559 132.464 159.801 133.304 160.1C134.555 160.529 135.581 160.959 136.384 161.388C137.205 161.799 137.905 162.387 138.484 163.152C139.081 163.899 139.38 164.851 139.38 166.008C139.38 167.184 139.081 168.239 138.484 169.172C137.905 170.105 137.056 170.843 135.936 171.384C134.835 171.925 133.528 172.196 132.016 172.196ZM157.009 163.964C157.009 164.393 156.981 164.823 156.925 165.252H146.537C146.593 166.111 146.827 166.755 147.237 167.184C147.667 167.595 148.208 167.8 148.861 167.8C149.776 167.8 150.429 167.389 150.821 166.568H156.673C156.431 167.651 155.955 168.621 155.245 169.48C154.555 170.32 153.677 170.983 152.613 171.468C151.549 171.953 150.373 172.196 149.085 172.196C147.536 172.196 146.155 171.869 144.941 171.216C143.747 170.563 142.804 169.629 142.113 168.416C141.441 167.203 141.105 165.775 141.105 164.132C141.105 162.489 141.441 161.071 142.113 159.876C142.785 158.663 143.719 157.729 144.913 157.076C146.127 156.423 147.517 156.096 149.085 156.096C150.635 156.096 152.007 156.413 153.201 157.048C154.396 157.683 155.329 158.597 156.001 159.792C156.673 160.968 157.009 162.359 157.009 163.964ZM151.409 162.592C151.409 161.92 151.185 161.397 150.737 161.024C150.289 160.632 149.729 160.436 149.057 160.436C148.385 160.436 147.835 160.623 147.405 160.996C146.976 161.351 146.696 161.883 146.565 162.592H151.409ZM164.813 151.28V172H159.325V151.28H164.813ZM167.112 164.132C167.112 162.508 167.402 161.089 167.98 159.876C168.578 158.663 169.38 157.729 170.388 157.076C171.415 156.423 172.554 156.096 173.804 156.096C174.887 156.096 175.82 156.311 176.604 156.74C177.388 157.169 177.995 157.748 178.424 158.476V156.292H183.912V172H178.424V169.816C177.995 170.544 177.379 171.123 176.576 171.552C175.792 171.981 174.868 172.196 173.804 172.196C172.554 172.196 171.415 171.869 170.388 171.216C169.38 170.563 168.578 169.629 167.98 168.416C167.402 167.184 167.112 165.756 167.112 164.132ZM178.424 164.132C178.424 163.124 178.144 162.331 177.584 161.752C177.043 161.173 176.371 160.884 175.568 160.884C174.747 160.884 174.066 161.173 173.524 161.752C172.983 162.312 172.712 163.105 172.712 164.132C172.712 165.14 172.983 165.943 173.524 166.54C174.066 167.119 174.747 167.408 175.568 167.408C176.371 167.408 177.043 167.119 177.584 166.54C178.144 165.961 178.424 165.159 178.424 164.132ZM207.634 156.152C209.612 156.152 211.162 156.749 212.282 157.944C213.42 159.139 213.99 160.772 213.99 162.844V172H208.502V163.572C208.502 162.732 208.268 162.079 207.802 161.612C207.335 161.145 206.7 160.912 205.898 160.912C205.095 160.912 204.46 161.145 203.994 161.612C203.527 162.079 203.294 162.732 203.294 163.572V172H197.806V163.572C197.806 162.732 197.572 162.079 197.106 161.612C196.658 161.145 196.032 160.912 195.23 160.912C194.408 160.912 193.764 161.145 193.298 161.612C192.831 162.079 192.598 162.732 192.598 163.572V172H187.11V156.292H192.598V158.364C193.083 157.692 193.708 157.16 194.474 156.768C195.258 156.357 196.154 156.152 197.162 156.152C198.319 156.152 199.346 156.404 200.242 156.908C201.156 157.412 201.875 158.121 202.398 159.036C202.958 158.177 203.695 157.487 204.61 156.964C205.524 156.423 206.532 156.152 207.634 156.152ZM216.17 164.132C216.17 162.508 216.46 161.089 217.038 159.876C217.636 158.663 218.438 157.729 219.446 157.076C220.473 156.423 221.612 156.096 222.862 156.096C223.945 156.096 224.878 156.311 225.662 156.74C226.446 157.169 227.053 157.748 227.482 158.476V156.292H232.97V172H227.482V169.816C227.053 170.544 226.437 171.123 225.634 171.552C224.85 171.981 223.926 172.196 222.862 172.196C221.612 172.196 220.473 171.869 219.446 171.216C218.438 170.563 217.636 169.629 217.038 168.416C216.46 167.184 216.17 165.756 216.17 164.132ZM227.482 164.132C227.482 163.124 227.202 162.331 226.642 161.752C226.101 161.173 225.429 160.884 224.626 160.884C223.805 160.884 223.124 161.173 222.582 161.752C222.041 162.312 221.77 163.105 221.77 164.132C221.77 165.14 222.041 165.943 222.582 166.54C223.124 167.119 223.805 167.408 224.626 167.408C225.429 167.408 226.101 167.119 226.642 166.54C227.202 165.961 227.482 165.159 227.482 164.132ZM245.436 167.324V172H243.056C239.042 172 237.036 170.012 237.036 166.036V160.856H235.104V156.292H237.036V152.484H242.552V156.292H245.408V160.856H242.552V166.12C242.552 166.549 242.645 166.857 242.832 167.044C243.037 167.231 243.373 167.324 243.84 167.324H245.436ZM261.264 152.26C263.336 152.26 265.147 152.68 266.696 153.52C268.264 154.341 269.468 155.499 270.308 156.992C271.148 158.485 271.568 160.193 271.568 162.116C271.568 164.02 271.139 165.719 270.28 167.212C269.44 168.705 268.236 169.881 266.668 170.74C265.119 171.58 263.318 172 261.264 172H253.452V152.26H261.264ZM260.844 167.156C262.45 167.156 263.71 166.717 264.624 165.84C265.539 164.963 265.996 163.721 265.996 162.116C265.996 160.492 265.539 159.241 264.624 158.364C263.71 157.468 262.45 157.02 260.844 157.02H258.94V167.156H260.844ZM273.216 164.132C273.216 162.508 273.505 161.089 274.084 159.876C274.681 158.663 275.484 157.729 276.492 157.076C277.519 156.423 278.657 156.096 279.908 156.096C280.991 156.096 281.924 156.311 282.708 156.74C283.492 157.169 284.099 157.748 284.528 158.476V156.292H290.016V172H284.528V169.816C284.099 170.544 283.483 171.123 282.68 171.552C281.896 171.981 280.972 172.196 279.908 172.196C278.657 172.196 277.519 171.869 276.492 171.216C275.484 170.563 274.681 169.629 274.084 168.416C273.505 167.184 273.216 165.756 273.216 164.132ZM284.528 164.132C284.528 163.124 284.248 162.331 283.688 161.752C283.147 161.173 282.475 160.884 281.672 160.884C280.851 160.884 280.169 161.173 279.628 161.752C279.087 162.312 278.816 163.105 278.816 164.132C278.816 165.14 279.087 165.943 279.628 166.54C280.169 167.119 280.851 167.408 281.672 167.408C282.475 167.408 283.147 167.119 283.688 166.54C284.248 165.961 284.528 165.159 284.528 164.132ZM302.481 167.324V172H300.101C296.088 172 294.081 170.012 294.081 166.036V160.856H292.149V156.292H294.081V152.484H299.597V156.292H302.453V160.856H299.597V166.12C299.597 166.549 299.691 166.857 299.877 167.044C300.083 167.231 300.419 167.324 300.885 167.324H302.481ZM304.172 164.132C304.172 162.508 304.462 161.089 305.04 159.876C305.638 158.663 306.44 157.729 307.448 157.076C308.475 156.423 309.614 156.096 310.864 156.096C311.947 156.096 312.88 156.311 313.664 156.74C314.448 157.169 315.055 157.748 315.484 158.476V156.292H320.972V172H315.484V169.816C315.055 170.544 314.439 171.123 313.636 171.552C312.852 171.981 311.928 172.196 310.864 172.196C309.614 172.196 308.475 171.869 307.448 171.216C306.44 170.563 305.638 169.629 305.04 168.416C304.462 167.184 304.172 165.756 304.172 164.132ZM315.484 164.132C315.484 163.124 315.204 162.331 314.644 161.752C314.103 161.173 313.431 160.884 312.628 160.884C311.807 160.884 311.126 161.173 310.584 161.752C310.043 162.312 309.772 163.105 309.772 164.132C309.772 165.14 310.043 165.943 310.584 166.54C311.126 167.119 311.807 167.408 312.628 167.408C313.431 167.408 314.103 167.119 314.644 166.54C315.204 165.961 315.484 165.159 315.484 164.132ZM334.446 156.152C336.256 156.152 337.694 156.759 338.758 157.972C339.822 159.167 340.354 160.791 340.354 162.844V172H334.866V163.572C334.866 162.676 334.632 161.976 334.166 161.472C333.699 160.949 333.074 160.688 332.29 160.688C331.468 160.688 330.824 160.949 330.358 161.472C329.891 161.976 329.658 162.676 329.658 163.572V172H324.17V156.292H329.658V158.532C330.143 157.823 330.796 157.253 331.618 156.824C332.439 156.376 333.382 156.152 334.446 156.152ZM349.231 156.096C350.295 156.096 351.219 156.311 352.003 156.74C352.806 157.169 353.422 157.748 353.851 158.476V156.292H359.339V171.832C359.339 173.307 359.059 174.632 358.499 175.808C357.939 177.003 357.062 177.955 355.867 178.664C354.691 179.373 353.198 179.728 351.387 179.728C348.96 179.728 347.019 179.159 345.563 178.02C344.107 176.881 343.276 175.332 343.071 173.372H348.475C348.587 173.876 348.867 174.268 349.315 174.548C349.763 174.828 350.342 174.968 351.051 174.968C352.918 174.968 353.851 173.923 353.851 171.832V169.816C353.422 170.544 352.806 171.123 352.003 171.552C351.219 171.981 350.295 172.196 349.231 172.196C347.98 172.196 346.842 171.869 345.815 171.216C344.807 170.563 344.004 169.629 343.407 168.416C342.828 167.184 342.539 165.756 342.539 164.132C342.539 162.508 342.828 161.089 343.407 159.876C344.004 158.663 344.807 157.729 345.815 157.076C346.842 156.423 347.98 156.096 349.231 156.096ZM353.851 164.132C353.851 163.124 353.571 162.331 353.011 161.752C352.47 161.173 351.798 160.884 350.995 160.884C350.174 160.884 349.492 161.173 348.951 161.752C348.41 162.312 348.139 163.105 348.139 164.132C348.139 165.14 348.41 165.943 348.951 166.54C349.492 167.119 350.174 167.408 350.995 167.408C351.798 167.408 352.47 167.119 353.011 166.54C353.571 165.961 353.851 165.159 353.851 164.132ZM367.07 164.132C367.07 162.508 367.359 161.089 367.938 159.876C368.535 158.663 369.347 157.729 370.374 157.076C371.4 156.423 372.539 156.096 373.79 156.096C374.798 156.096 375.694 156.311 376.478 156.74C377.28 157.151 377.906 157.72 378.354 158.448V151.28H383.87V172H378.354V169.816C377.924 170.544 377.318 171.123 376.534 171.552C375.75 171.981 374.826 172.196 373.762 172.196C372.511 172.196 371.372 171.869 370.346 171.216C369.338 170.563 368.535 169.629 367.938 168.416C367.359 167.184 367.07 165.756 367.07 164.132ZM378.382 164.132C378.382 163.124 378.102 162.331 377.542 161.752C377 161.173 376.328 160.884 375.526 160.884C374.704 160.884 374.023 161.173 373.482 161.752C372.94 162.312 372.67 163.105 372.67 164.132C372.67 165.14 372.94 165.943 373.482 166.54C374.023 167.119 374.704 167.408 375.526 167.408C376.328 167.408 377 167.119 377.542 166.54C378.102 165.961 378.382 165.159 378.382 164.132ZM389.839 154.836C388.868 154.836 388.084 154.575 387.487 154.052C386.908 153.511 386.619 152.839 386.619 152.036C386.619 151.215 386.908 150.533 387.487 149.992C388.084 149.451 388.868 149.18 389.839 149.18C390.791 149.18 391.556 149.451 392.135 149.992C392.732 150.533 393.031 151.215 393.031 152.036C393.031 152.839 392.732 153.511 392.135 154.052C391.556 154.575 390.791 154.836 389.839 154.836ZM392.555 156.292V172H387.067V156.292H392.555ZM406.668 156.656V159.876H412.968V164.048H406.668V167.604H413.808V172H401.18V152.26H413.808V156.656H406.668ZM415.693 164.132C415.693 162.508 415.983 161.089 416.561 159.876C417.159 158.663 417.971 157.729 418.997 157.076C420.024 156.423 421.163 156.096 422.413 156.096C423.421 156.096 424.317 156.311 425.101 156.74C425.904 157.151 426.529 157.72 426.977 158.448V151.28H432.493V172H426.977V169.816C426.548 170.544 425.941 171.123 425.157 171.552C424.373 171.981 423.449 172.196 422.385 172.196C421.135 172.196 419.996 171.869 418.969 171.216C417.961 170.563 417.159 169.629 416.561 168.416C415.983 167.184 415.693 165.756 415.693 164.132ZM427.005 164.132C427.005 163.124 426.725 162.331 426.165 161.752C425.624 161.173 424.952 160.884 424.149 160.884C423.328 160.884 422.647 161.173 422.105 161.752C421.564 162.312 421.293 163.105 421.293 164.132C421.293 165.14 421.564 165.943 422.105 166.54C422.647 167.119 423.328 167.408 424.149 167.408C424.952 167.408 425.624 167.119 426.165 166.54C426.725 165.961 427.005 165.159 427.005 164.132ZM451.763 156.292V172H446.247V169.76C445.78 170.469 445.136 171.048 444.315 171.496C443.493 171.925 442.551 172.14 441.487 172.14C439.657 172.14 438.211 171.543 437.147 170.348C436.101 169.135 435.579 167.492 435.579 165.42V156.292H441.039V164.72C441.039 165.616 441.272 166.325 441.739 166.848C442.224 167.352 442.859 167.604 443.643 167.604C444.445 167.604 445.08 167.352 445.547 166.848C446.013 166.325 446.247 165.616 446.247 164.72V156.292H451.763ZM462.404 172.196C460.108 172.196 458.223 171.655 456.748 170.572C455.273 169.471 454.48 167.903 454.368 165.868H460.22C460.276 166.559 460.481 167.063 460.836 167.38C461.191 167.697 461.648 167.856 462.208 167.856C462.712 167.856 463.123 167.735 463.44 167.492C463.776 167.231 463.944 166.876 463.944 166.428C463.944 165.849 463.673 165.401 463.132 165.084C462.591 164.767 461.713 164.412 460.5 164.02C459.212 163.591 458.167 163.18 457.364 162.788C456.58 162.377 455.889 161.789 455.292 161.024C454.713 160.24 454.424 159.223 454.424 157.972C454.424 156.703 454.741 155.62 455.376 154.724C456.011 153.809 456.888 153.119 458.008 152.652C459.128 152.185 460.397 151.952 461.816 151.952C464.112 151.952 465.941 152.493 467.304 153.576C468.685 154.64 469.423 156.143 469.516 158.084H463.552C463.533 157.487 463.347 157.039 462.992 156.74C462.656 156.441 462.217 156.292 461.676 156.292C461.265 156.292 460.929 156.413 460.668 156.656C460.407 156.899 460.276 157.244 460.276 157.692C460.276 158.065 460.416 158.392 460.696 158.672C460.995 158.933 461.359 159.167 461.788 159.372C462.217 159.559 462.852 159.801 463.692 160.1C464.943 160.529 465.969 160.959 466.772 161.388C467.593 161.799 468.293 162.387 468.872 163.152C469.469 163.899 469.768 164.851 469.768 166.008C469.768 167.184 469.469 168.239 468.872 169.172C468.293 170.105 467.444 170.843 466.324 171.384C465.223 171.925 463.916 172.196 462.404 172.196ZM471.493 164.132C471.493 162.508 471.829 161.089 472.501 159.876C473.173 158.663 474.107 157.729 475.301 157.076C476.515 156.423 477.896 156.096 479.445 156.096C481.443 156.096 483.123 156.647 484.485 157.748C485.848 158.831 486.725 160.352 487.117 162.312H481.293C480.957 161.285 480.304 160.772 479.333 160.772C478.643 160.772 478.092 161.061 477.681 161.64C477.289 162.2 477.093 163.031 477.093 164.132C477.093 165.233 477.289 166.073 477.681 166.652C478.092 167.231 478.643 167.52 479.333 167.52C480.323 167.52 480.976 167.007 481.293 165.98H487.117C486.725 167.921 485.848 169.443 484.485 170.544C483.123 171.645 481.443 172.196 479.445 172.196C477.896 172.196 476.515 171.869 475.301 171.216C474.107 170.563 473.173 169.629 472.501 168.416C471.829 167.203 471.493 165.775 471.493 164.132ZM488.571 164.132C488.571 162.508 488.86 161.089 489.439 159.876C490.036 158.663 490.839 157.729 491.847 157.076C492.874 156.423 494.012 156.096 495.263 156.096C496.346 156.096 497.279 156.311 498.063 156.74C498.847 157.169 499.454 157.748 499.883 158.476V156.292H505.371V172H499.883V169.816C499.454 170.544 498.838 171.123 498.035 171.552C497.251 171.981 496.327 172.196 495.263 172.196C494.012 172.196 492.874 171.869 491.847 171.216C490.839 170.563 490.036 169.629 489.439 168.416C488.86 167.184 488.571 165.756 488.571 164.132ZM499.883 164.132C499.883 163.124 499.603 162.331 499.043 161.752C498.502 161.173 497.83 160.884 497.027 160.884C496.206 160.884 495.524 161.173 494.983 161.752C494.442 162.312 494.171 163.105 494.171 164.132C494.171 165.14 494.442 165.943 494.983 166.54C495.524 167.119 496.206 167.408 497.027 167.408C497.83 167.408 498.502 167.119 499.043 166.54C499.603 165.961 499.883 165.159 499.883 164.132ZM518.844 156.152C520.655 156.152 522.092 156.759 523.156 157.972C524.22 159.167 524.752 160.791 524.752 162.844V172H519.264V163.572C519.264 162.676 519.031 161.976 518.564 161.472C518.098 160.949 517.472 160.688 516.688 160.688C515.867 160.688 515.223 160.949 514.756 161.472C514.29 161.976 514.056 162.676 514.056 163.572V172H508.568V156.292H514.056V158.532C514.542 157.823 515.195 157.253 516.016 156.824C516.838 156.376 517.78 156.152 518.844 156.152ZM130.056 207.8H136.188V212H124.568V192.26H130.056V207.8ZM145.7 212.196C144.132 212.196 142.723 211.869 141.472 211.216C140.24 210.563 139.269 209.629 138.56 208.416C137.851 207.203 137.496 205.775 137.496 204.132C137.496 202.508 137.851 201.089 138.56 199.876C139.288 198.663 140.268 197.729 141.5 197.076C142.751 196.423 144.16 196.096 145.728 196.096C147.296 196.096 148.696 196.423 149.928 197.076C151.179 197.729 152.159 198.663 152.868 199.876C153.596 201.089 153.96 202.508 153.96 204.132C153.96 205.756 153.596 207.184 152.868 208.416C152.159 209.629 151.179 210.563 149.928 211.216C148.677 211.869 147.268 212.196 145.7 212.196ZM145.7 207.436C146.465 207.436 147.1 207.156 147.604 206.596C148.127 206.017 148.388 205.196 148.388 204.132C148.388 203.068 148.127 202.256 147.604 201.696C147.1 201.136 146.475 200.856 145.728 200.856C144.981 200.856 144.356 201.136 143.852 201.696C143.348 202.256 143.096 203.068 143.096 204.132C143.096 205.215 143.339 206.036 143.824 206.596C144.309 207.156 144.935 207.436 145.7 207.436ZM162.059 196.096C163.123 196.096 164.047 196.311 164.831 196.74C165.633 197.169 166.249 197.748 166.679 198.476V196.292H172.167V211.832C172.167 213.307 171.887 214.632 171.327 215.808C170.767 217.003 169.889 217.955 168.695 218.664C167.519 219.373 166.025 219.728 164.215 219.728C161.788 219.728 159.847 219.159 158.391 218.02C156.935 216.881 156.104 215.332 155.899 213.372H161.303C161.415 213.876 161.695 214.268 162.143 214.548C162.591 214.828 163.169 214.968 163.879 214.968C165.745 214.968 166.679 213.923 166.679 211.832V209.816C166.249 210.544 165.633 211.123 164.831 211.552C164.047 211.981 163.123 212.196 162.059 212.196C160.808 212.196 159.669 211.869 158.643 211.216C157.635 210.563 156.832 209.629 156.235 208.416C155.656 207.184 155.367 205.756 155.367 204.132C155.367 202.508 155.656 201.089 156.235 199.876C156.832 198.663 157.635 197.729 158.643 197.076C159.669 196.423 160.808 196.096 162.059 196.096ZM166.679 204.132C166.679 203.124 166.399 202.331 165.839 201.752C165.297 201.173 164.625 200.884 163.823 200.884C163.001 200.884 162.32 201.173 161.779 201.752C161.237 202.312 160.967 203.105 160.967 204.132C160.967 205.14 161.237 205.943 161.779 206.54C162.32 207.119 163.001 207.408 163.823 207.408C164.625 207.408 165.297 207.119 165.839 206.54C166.399 205.961 166.679 205.159 166.679 204.132ZM178.136 194.836C177.165 194.836 176.381 194.575 175.784 194.052C175.205 193.511 174.916 192.839 174.916 192.036C174.916 191.215 175.205 190.533 175.784 189.992C176.381 189.451 177.165 189.18 178.136 189.18C179.088 189.18 179.853 189.451 180.432 189.992C181.029 190.533 181.328 191.215 181.328 192.036C181.328 192.839 181.029 193.511 180.432 194.052C179.853 194.575 179.088 194.836 178.136 194.836ZM180.852 196.292V212H175.364V196.292H180.852ZM194.323 196.152C196.134 196.152 197.571 196.759 198.635 197.972C199.699 199.167 200.231 200.791 200.231 202.844V212H194.743V203.572C194.743 202.676 194.51 201.976 194.043 201.472C193.577 200.949 192.951 200.688 192.167 200.688C191.346 200.688 190.702 200.949 190.235 201.472C189.769 201.976 189.535 202.676 189.535 203.572V212H184.047V196.292H189.535V198.532C190.021 197.823 190.674 197.253 191.495 196.824C192.317 196.376 193.259 196.152 194.323 196.152ZM216.19 212.196C213.894 212.196 212.009 211.655 210.534 210.572C209.059 209.471 208.266 207.903 208.154 205.868H214.006C214.062 206.559 214.267 207.063 214.622 207.38C214.977 207.697 215.434 207.856 215.994 207.856C216.498 207.856 216.909 207.735 217.226 207.492C217.562 207.231 217.73 206.876 217.73 206.428C217.73 205.849 217.459 205.401 216.918 205.084C216.377 204.767 215.499 204.412 214.286 204.02C212.998 203.591 211.953 203.18 211.15 202.788C210.366 202.377 209.675 201.789 209.078 201.024C208.499 200.24 208.21 199.223 208.21 197.972C208.21 196.703 208.527 195.62 209.162 194.724C209.797 193.809 210.674 193.119 211.794 192.652C212.914 192.185 214.183 191.952 215.602 191.952C217.898 191.952 219.727 192.493 221.09 193.576C222.471 194.64 223.209 196.143 223.302 198.084H217.338C217.319 197.487 217.133 197.039 216.778 196.74C216.442 196.441 216.003 196.292 215.462 196.292C215.051 196.292 214.715 196.413 214.454 196.656C214.193 196.899 214.062 197.244 214.062 197.692C214.062 198.065 214.202 198.392 214.482 198.672C214.781 198.933 215.145 199.167 215.574 199.372C216.003 199.559 216.638 199.801 217.478 200.1C218.729 200.529 219.755 200.959 220.558 201.388C221.379 201.799 222.079 202.387 222.658 203.152C223.255 203.899 223.554 204.851 223.554 206.008C223.554 207.184 223.255 208.239 222.658 209.172C222.079 210.105 221.23 210.843 220.11 211.384C219.009 211.925 217.702 212.196 216.19 212.196ZM241.183 203.964C241.183 204.393 241.155 204.823 241.099 205.252H230.711C230.767 206.111 231.001 206.755 231.411 207.184C231.841 207.595 232.382 207.8 233.035 207.8C233.95 207.8 234.603 207.389 234.995 206.568H240.847C240.605 207.651 240.129 208.621 239.419 209.48C238.729 210.32 237.851 210.983 236.787 211.468C235.723 211.953 234.547 212.196 233.259 212.196C231.71 212.196 230.329 211.869 229.115 211.216C227.921 210.563 226.978 209.629 226.287 208.416C225.615 207.203 225.279 205.775 225.279 204.132C225.279 202.489 225.615 201.071 226.287 199.876C226.959 198.663 227.893 197.729 229.087 197.076C230.301 196.423 231.691 196.096 233.259 196.096C234.809 196.096 236.181 196.413 237.375 197.048C238.57 197.683 239.503 198.597 240.175 199.792C240.847 200.968 241.183 202.359 241.183 203.964ZM235.583 202.592C235.583 201.92 235.359 201.397 234.911 201.024C234.463 200.632 233.903 200.436 233.231 200.436C232.559 200.436 232.009 200.623 231.579 200.996C231.15 201.351 230.87 201.883 230.739 202.592H235.583ZM253.327 212L248.987 205.56V212H243.499V191.28H248.987V202.452L253.327 196.292H259.907L253.719 204.188L260.019 212H253.327ZM260.802 204.132C260.802 202.508 261.091 201.089 261.67 199.876C262.267 198.663 263.07 197.729 264.078 197.076C265.105 196.423 266.243 196.096 267.494 196.096C268.577 196.096 269.51 196.311 270.294 196.74C271.078 197.169 271.685 197.748 272.114 198.476V196.292H277.602V212H272.114V209.816C271.685 210.544 271.069 211.123 270.266 211.552C269.482 211.981 268.558 212.196 267.494 212.196C266.243 212.196 265.105 211.869 264.078 211.216C263.07 210.563 262.267 209.629 261.67 208.416C261.091 207.184 260.802 205.756 260.802 204.132ZM272.114 204.132C272.114 203.124 271.834 202.331 271.274 201.752C270.733 201.173 270.061 200.884 269.258 200.884C268.437 200.884 267.755 201.173 267.214 201.752C266.673 202.312 266.402 203.105 266.402 204.132C266.402 205.14 266.673 205.943 267.214 206.54C267.755 207.119 268.437 207.408 269.258 207.408C270.061 207.408 270.733 207.119 271.274 206.54C271.834 205.961 272.114 205.159 272.114 204.132ZM286.287 199.064C286.903 198.168 287.65 197.459 288.527 196.936C289.405 196.413 290.347 196.152 291.355 196.152V202.004H289.815C288.621 202.004 287.734 202.237 287.155 202.704C286.577 203.171 286.287 203.983 286.287 205.14V212H280.799V196.292H286.287V199.064ZM292.497 204.132C292.497 202.508 292.786 201.089 293.365 199.876C293.962 198.663 294.765 197.729 295.773 197.076C296.799 196.423 297.938 196.096 299.189 196.096C300.271 196.096 301.205 196.311 301.989 196.74C302.773 197.169 303.379 197.748 303.809 198.476V196.292H309.297V212H303.809V209.816C303.379 210.544 302.763 211.123 301.961 211.552C301.177 211.981 300.253 212.196 299.189 212.196C297.938 212.196 296.799 211.869 295.773 211.216C294.765 210.563 293.962 209.629 293.365 208.416C292.786 207.184 292.497 205.756 292.497 204.132ZM303.809 204.132C303.809 203.124 303.529 202.331 302.969 201.752C302.427 201.173 301.755 200.884 300.953 200.884C300.131 200.884 299.45 201.173 298.909 201.752C298.367 202.312 298.097 203.105 298.097 204.132C298.097 205.14 298.367 205.943 298.909 206.54C299.45 207.119 300.131 207.408 300.953 207.408C301.755 207.408 302.427 207.119 302.969 206.54C303.529 205.961 303.809 205.159 303.809 204.132ZM322.77 196.152C324.581 196.152 326.018 196.759 327.082 197.972C328.146 199.167 328.678 200.791 328.678 202.844V212H323.19V203.572C323.19 202.676 322.957 201.976 322.49 201.472C322.023 200.949 321.398 200.688 320.614 200.688C319.793 200.688 319.149 200.949 318.682 201.472C318.215 201.976 317.982 202.676 317.982 203.572V212H312.494V196.292H317.982V198.532C318.467 197.823 319.121 197.253 319.942 196.824C320.763 196.376 321.706 196.152 322.77 196.152ZM337.555 196.096C338.619 196.096 339.543 196.311 340.327 196.74C341.13 197.169 341.746 197.748 342.175 198.476V196.292H347.663V211.832C347.663 213.307 347.383 214.632 346.823 215.808C346.263 217.003 345.386 217.955 344.191 218.664C343.015 219.373 341.522 219.728 339.711 219.728C337.285 219.728 335.343 219.159 333.887 218.02C332.431 216.881 331.601 215.332 331.395 213.372H336.799C336.911 213.876 337.191 214.268 337.639 214.548C338.087 214.828 338.666 214.968 339.375 214.968C341.242 214.968 342.175 213.923 342.175 211.832V209.816C341.746 210.544 341.13 211.123 340.327 211.552C339.543 211.981 338.619 212.196 337.555 212.196C336.305 212.196 335.166 211.869 334.139 211.216C333.131 210.563 332.329 209.629 331.731 208.416C331.153 207.184 330.863 205.756 330.863 204.132C330.863 202.508 331.153 201.089 331.731 199.876C332.329 198.663 333.131 197.729 334.139 197.076C335.166 196.423 336.305 196.096 337.555 196.096ZM342.175 204.132C342.175 203.124 341.895 202.331 341.335 201.752C340.794 201.173 340.122 200.884 339.319 200.884C338.498 200.884 337.817 201.173 337.275 201.752C336.734 202.312 336.463 203.105 336.463 204.132C336.463 205.14 336.734 205.943 337.275 206.54C337.817 207.119 338.498 207.408 339.319 207.408C340.122 207.408 340.794 207.119 341.335 206.54C341.895 205.961 342.175 205.159 342.175 204.132ZM358.196 191.252L357.552 204.608H352.876L352.232 191.252H358.196ZM355.228 212.224C354.258 212.224 353.474 211.963 352.876 211.44C352.298 210.899 352.008 210.217 352.008 209.396C352.008 208.575 352.298 207.893 352.876 207.352C353.474 206.811 354.258 206.54 355.228 206.54C356.18 206.54 356.946 206.811 357.524 207.352C358.122 207.893 358.42 208.575 358.42 209.396C358.42 210.199 358.122 210.871 357.524 211.412C356.946 211.953 356.18 212.224 355.228 212.224Z" fill="#F5F7FA"/>
<g clip-path="url(#clip0_553_3884)">
<path d="M227.876 603.039L225.192 593.357C220.433 591.513 215.564 589.916 210.607 588.573L210.269 593.072L208.895 588.116C202.748 586.509 198.567 585.803 198.567 585.803C198.567 585.803 204.214 605.44 216.062 620.453L229.866 622.67L219.142 624.084C220.633 625.723 222.234 627.275 223.937 628.731C241.171 643.356 260.366 650.066 266.81 643.717C273.255 637.367 264.509 620.368 247.275 605.744C241.934 601.21 235.221 597.571 228.503 594.707L227.876 603.039Z" fill="#F2F2F2"/>
<path d="M253.404 592.525L256.578 582.971C253.547 579.143 250.282 575.474 246.799 571.982L243.966 575.673L245.591 570.781C241.237 566.502 238.057 563.922 238.057 563.922C238.057 563.922 231.79 583.401 233.443 601.852L244.006 610.271L234.025 606.413C234.374 608.521 234.868 610.607 235.504 612.658C241.988 633.323 254.626 648.138 263.732 645.75C272.837 643.361 274.963 624.673 268.478 604.009C266.468 597.603 262.779 591.317 258.648 585.691L253.404 592.525Z" fill="#F2F2F2"/>
<path d="M477.895 338.032H475.466V277.206C475.466 267.869 471.41 258.914 464.189 252.312C456.968 245.71 447.174 242 436.962 242H296.005C285.792 242 275.998 245.709 268.777 252.311C261.556 258.914 257.499 267.869 257.499 277.206V610.908C257.499 615.531 258.495 620.109 260.43 624.38C262.365 628.652 265.201 632.533 268.777 635.802C272.353 639.071 276.597 641.664 281.269 643.434C285.941 645.203 290.948 646.113 296.005 646.113H436.962C447.174 646.113 456.968 642.404 464.189 635.802C471.41 629.2 475.467 620.245 475.467 610.908V381.328H477.896L477.895 338.032Z" fill="#E6E6E6"/>
<path d="M438.514 251.156H420.116C420.962 253.053 421.285 255.11 421.056 257.148C420.828 259.186 420.054 261.141 418.804 262.841C417.555 264.541 415.867 265.934 413.889 266.897C411.912 267.86 409.706 268.364 407.466 268.364H326.714C324.474 268.364 322.268 267.86 320.29 266.897C318.313 265.934 316.625 264.541 315.375 262.841C314.125 261.141 313.352 259.185 313.124 257.148C312.895 255.11 313.218 253.052 314.064 251.155H296.88C289.254 251.155 281.939 253.925 276.547 258.856C271.154 263.787 268.124 270.474 268.124 277.447V610.665C268.124 617.638 271.154 624.325 276.547 629.256C281.939 634.186 289.254 636.956 296.88 636.956H438.514C446.14 636.956 453.455 634.186 458.848 629.256C464.241 624.325 467.27 617.638 467.27 610.665V277.446C467.27 270.474 464.24 263.786 458.848 258.856C453.455 253.926 446.141 251.156 438.514 251.155L438.514 251.156Z" fill="white"/>
<path d="M349.649 383.892C349.649 381.563 350.32 379.274 351.594 377.257C352.869 375.24 354.702 373.565 356.91 372.402C354.704 371.237 352.201 370.624 349.654 370.624C347.107 370.624 344.605 371.237 342.399 372.401C340.193 373.566 338.361 375.24 337.087 377.257C335.814 379.274 335.143 381.562 335.143 383.891C335.143 386.22 335.814 388.508 337.087 390.524C338.361 392.541 340.193 394.216 342.399 395.38C344.605 396.545 347.107 397.158 349.654 397.158C352.201 397.157 354.704 396.544 356.91 395.38C354.703 394.217 352.87 392.542 351.596 390.526C350.322 388.509 349.651 386.221 349.652 383.892H349.649Z" fill="#CCCCCC"/>
<path d="M367.89 383.892C367.89 381.563 368.561 379.274 369.835 377.257C371.11 375.24 372.943 373.565 375.151 372.402C372.945 371.237 370.442 370.624 367.895 370.624C365.348 370.624 362.846 371.237 360.64 372.401C358.434 373.566 356.602 375.24 355.328 377.257C354.055 379.274 353.384 381.562 353.384 383.891C353.384 386.22 354.055 388.508 355.328 390.524C356.602 392.541 358.434 394.216 360.64 395.38C362.846 396.545 365.348 397.158 367.895 397.158C370.442 397.157 372.945 396.544 375.151 395.38C372.944 394.217 371.111 392.542 369.837 390.526C368.563 388.509 367.892 386.221 367.893 383.892H367.89Z" fill="#CCCCCC"/>
<path d="M385.718 397.159C393.732 397.159 400.229 391.219 400.229 383.892C400.229 376.565 393.732 370.625 385.718 370.625C377.704 370.625 371.208 376.565 371.208 383.892C371.208 391.219 377.704 397.159 385.718 397.159Z" fill="#FF6A3B"/>
<path d="M409.968 425.33H325.397C324.592 425.329 323.82 425.036 323.251 424.515C322.682 423.995 322.361 423.289 322.36 422.553V345.232C322.362 344.496 322.683 343.791 323.252 343.271C323.821 342.751 324.593 342.458 325.397 342.457H409.968C410.774 342.458 411.545 342.751 412.115 343.271C412.684 343.792 413.004 344.498 413.005 345.234V422.55C413.004 423.286 412.684 423.992 412.115 424.513C411.545 425.033 410.774 425.326 409.968 425.327V425.33ZM325.397 343.566C324.914 343.567 324.451 343.742 324.109 344.055C323.768 344.367 323.576 344.79 323.575 345.232V422.554C323.576 422.995 323.768 423.419 324.109 423.731C324.451 424.043 324.914 424.219 325.397 424.219H409.968C410.452 424.219 410.915 424.043 411.256 423.731C411.598 423.419 411.79 422.995 411.79 422.554V345.232C411.79 344.79 411.598 344.367 411.256 344.055C410.915 343.742 410.452 343.567 409.968 343.566H325.397Z" fill="#CCCCCC"/>
<path d="M428.852 484.6H299.147V485.71H428.852V484.6Z" fill="#CCCCCC"/>
<path d="M303.243 477.665C305.505 477.665 307.338 475.988 307.338 473.92C307.338 471.852 305.505 470.175 303.243 470.175C300.981 470.175 299.147 471.852 299.147 473.92C299.147 475.988 300.981 477.665 303.243 477.665Z" fill="#FF6A3B"/>
<path d="M428.852 522.048H299.147V523.159H428.852V522.048Z" fill="#CCCCCC"/>
<path d="M303.243 515.114C305.505 515.114 307.338 513.437 307.338 511.369C307.338 509.301 305.505 507.624 303.243 507.624C300.981 507.624 299.147 509.301 299.147 511.369C299.147 513.437 300.981 515.114 303.243 515.114Z" fill="#FF6A3B"/>
<path d="M426.478 564.693H385.487C384.779 564.692 384.101 564.435 383.6 563.977C383.099 563.519 382.818 562.899 382.817 562.251V549.118C382.818 548.47 383.099 547.85 383.6 547.392C384.101 546.934 384.779 546.677 385.487 546.676H426.478C427.186 546.677 427.865 546.934 428.365 547.392C428.866 547.85 429.147 548.47 429.148 549.118V562.251C429.147 562.899 428.866 563.519 428.365 563.977C427.865 564.435 427.186 564.692 426.478 564.693Z" fill="#FF6A3B"/>
<path d="M316.604 477.665C318.866 477.665 320.7 475.988 320.7 473.92C320.7 471.852 318.866 470.175 316.604 470.175C314.342 470.175 312.508 471.852 312.508 473.92C312.508 475.988 314.342 477.665 316.604 477.665Z" fill="#FF6A3B"/>
<path d="M329.965 477.665C332.227 477.665 334.061 475.988 334.061 473.92C334.061 471.852 332.227 470.175 329.965 470.175C327.703 470.175 325.869 471.852 325.869 473.92C325.869 475.988 327.703 477.665 329.965 477.665Z" fill="#FF6A3B"/>
<path d="M316.604 515.114C318.866 515.114 320.7 513.437 320.7 511.369C320.7 509.301 318.866 507.624 316.604 507.624C314.342 507.624 312.508 509.301 312.508 511.369C312.508 513.437 314.342 515.114 316.604 515.114Z" fill="#FF6A3B"/>
<path d="M329.965 515.114C332.227 515.114 334.061 513.437 334.061 511.369C334.061 509.301 332.227 507.624 329.965 507.624C327.703 507.624 325.869 509.301 325.869 511.369C325.869 513.437 327.703 515.114 329.965 515.114Z" fill="#FF6A3B"/>
<path d="M587.301 647.539H148.699C147.761 647.539 147 647.232 147 646.855C147 646.478 147.761 646.171 148.699 646.171H587.301C588.239 646.171 589 646.478 589 646.855C589 647.233 588.239 647.539 587.301 647.539Z" fill="#E6E6E6"/>
<path d="M531.142 496.2L520.829 514.866L489.998 527.682C486.706 532.77 476.242 533.159 475.481 529.871C474.627 526.18 488.188 520.239 488.188 520.239L513.979 504.29L516.235 490.559L531.142 496.2Z" fill="#FFB9B9"/>
<path d="M529.926 621.462L531.828 635.373L520.797 636.069L519.656 621.463L529.926 621.462Z" fill="#FFB9B9"/>
<path d="M528.405 633.286C529.391 632.333 530.301 631.316 531.127 630.243C532.708 628.243 534.111 638.503 534.111 638.503C534.111 638.503 535.632 642.676 535.252 644.762C534.871 646.849 526.123 646.849 524.601 646.502C523.08 646.155 515.473 646.502 515.473 646.502H504.062C494.172 642.329 504.062 639.547 504.062 639.547C507.105 639.199 517.375 630.505 517.375 630.505L519.657 626.68C521.178 626.332 522.7 631.548 522.7 631.548L528.405 633.286Z" fill="#090814"/>
<path d="M558.454 621.636L560.357 635.546L549.327 636.242L548.185 621.636H558.454Z" fill="#FFB9B9"/>
<path d="M556.932 633.46C557.918 632.507 558.827 631.49 559.654 630.417C561.234 628.417 562.637 638.677 562.637 638.677C562.637 638.677 564.158 642.502 563.778 644.588C563.398 646.675 554.65 646.675 553.128 646.328C551.606 645.982 544 646.676 544 646.676H532.589C522.699 642.503 532.589 639.721 532.589 639.721C535.632 639.373 545.901 630.679 545.901 630.679L548.184 626.854C549.705 626.506 551.227 631.722 551.227 631.722L556.932 633.46Z" fill="#090814"/>
<path d="M545.9 531.914C547.422 533.654 546.661 539.564 546.661 539.564C546.661 539.564 549.323 558.691 548.182 560.43C547.041 562.169 548.943 563.56 550.085 565.994C551.228 568.429 552.368 574.34 552.368 574.34C558.834 579.209 558.454 601.466 558.454 601.466L560.735 621.288C559.975 623.375 549.325 623.723 547.803 623.375C546.282 623.028 541.717 591.729 541.717 591.729L531.447 573.993C531.447 573.993 532.208 621.288 532.208 623.375C532.208 625.461 521.938 624.418 519.656 624.418C517.373 624.418 517.373 589.642 517.373 589.642L515.091 580.6L502.919 539.217V534.347L504.823 531.912C504.823 531.912 544.379 530.175 545.9 531.914Z" fill="#090814"/>
<path d="M529.166 452.972C535.678 452.972 540.958 448.145 540.958 442.191C540.958 436.237 535.678 431.41 529.166 431.41C522.654 431.41 517.375 436.237 517.375 442.191C517.375 448.145 522.654 452.972 529.166 452.972Z" fill="#FFB9B9"/>
<path d="M523.27 447.233C525.66 452.099 524.245 458.896 519.464 466.36L538.863 458.014L535.82 455.58L536.581 448.625L523.27 447.233Z" fill="#FFB9B9"/>
<path d="M523.269 458.362C520.729 459.743 519.209 462.28 518.337 464.862C516.722 469.641 515.75 474.583 515.442 479.577L514.521 494.529L503.11 534.174C512.999 541.825 518.703 540.086 532.018 533.826C545.332 527.567 546.852 535.914 546.852 535.914C546.852 535.914 547.993 535.566 546.852 534.524C545.711 533.481 546.852 534.524 547.993 533.48C549.135 532.437 547.993 533.48 547.613 532.437C547.232 531.393 547.613 532.089 547.993 531.741C548.374 531.394 546.472 528.261 546.472 528.261L549.515 502.179L551.418 483.748L553.321 465.317C548.757 460.1 535.825 455.579 535.825 455.579L524.03 463.23C520.224 464.621 523.27 459.057 523.27 459.057L523.269 458.362Z" fill="#FF6A3B"/>
<path d="M559.594 487.4L561.115 508.266L541.717 533.652C541.717 539.564 538.293 540.956 538.293 540.956C536.997 539.064 535.853 537.088 534.87 535.044C532.967 531.218 536.012 528.088 536.012 528.088L549.324 502.354L543.619 489.487L559.594 487.4Z" fill="#FFB9B9"/>
<path d="M553.131 465.491C559.597 467.578 560.738 490.183 560.738 490.183C553.131 486.357 544.002 492.617 544.002 492.617C544.002 492.617 542.099 486.705 539.818 479.054C539.129 476.902 539.047 474.626 539.579 472.437C540.111 470.248 541.24 468.217 542.861 466.535C542.861 466.535 546.662 463.405 553.131 465.491Z" fill="#FF6A3B"/>
<path d="M540.005 445.494C538.504 444.397 536.457 446.392 536.457 446.392L535.256 436.511C535.256 436.511 527.75 437.334 522.947 436.236C518.143 435.138 517.393 440.216 517.393 440.216C517.145 438.166 517.095 436.1 517.242 434.042C517.543 431.573 521.446 429.103 528.351 427.455C535.256 425.806 538.858 432.944 538.858 432.944C543.659 435.138 541.506 446.593 540.005 445.494Z" fill="#090814"/>
</g>
<defs>
<clipPath id="clip0_553_3884">
<rect width="442" height="405.539" fill="white" transform="translate(147 242)"/>
</clipPath>
</defs>
</svg>
