<svg width="738" height="798" viewBox="0 0 738 798" fill="none" xmlns="http://www.w3.org/2000/svg">
<rect width="738" height="798" fill="#4A48A1" fill-opacity="0.9"/>
<path d="M132.016 172.196C129.72 172.196 127.835 171.655 126.36 170.572C124.885 169.471 124.092 167.903 123.98 165.868H129.832C129.888 166.559 130.093 167.063 130.448 167.38C130.803 167.697 131.26 167.856 131.82 167.856C132.324 167.856 132.735 167.735 133.052 167.492C133.388 167.231 133.556 166.876 133.556 166.428C133.556 165.849 133.285 165.401 132.744 165.084C132.203 164.767 131.325 164.412 130.112 164.02C128.824 163.591 127.779 163.18 126.976 162.788C126.192 162.377 125.501 161.789 124.904 161.024C124.325 160.24 124.036 159.223 124.036 157.972C124.036 156.703 124.353 155.62 124.988 154.724C125.623 153.809 126.5 153.119 127.62 152.652C128.74 152.185 130.009 151.952 131.428 151.952C133.724 151.952 135.553 152.493 136.916 153.576C138.297 154.64 139.035 156.143 139.128 158.084H133.164C133.145 157.487 132.959 157.039 132.604 156.74C132.268 156.441 131.829 156.292 131.288 156.292C130.877 156.292 130.541 156.413 130.28 156.656C130.019 156.899 129.888 157.244 129.888 157.692C129.888 158.065 130.028 158.392 130.308 158.672C130.607 158.933 130.971 159.167 131.4 159.372C131.829 159.559 132.464 159.801 133.304 160.1C134.555 160.529 135.581 160.959 136.384 161.388C137.205 161.799 137.905 162.387 138.484 163.152C139.081 163.899 139.38 164.851 139.38 166.008C139.38 167.184 139.081 168.239 138.484 169.172C137.905 170.105 137.056 170.843 135.936 171.384C134.835 171.925 133.528 172.196 132.016 172.196ZM157.009 163.964C157.009 164.393 156.981 164.823 156.925 165.252H146.537C146.593 166.111 146.827 166.755 147.237 167.184C147.667 167.595 148.208 167.8 148.861 167.8C149.776 167.8 150.429 167.389 150.821 166.568H156.673C156.431 167.651 155.955 168.621 155.245 169.48C154.555 170.32 153.677 170.983 152.613 171.468C151.549 171.953 150.373 172.196 149.085 172.196C147.536 172.196 146.155 171.869 144.941 171.216C143.747 170.563 142.804 169.629 142.113 168.416C141.441 167.203 141.105 165.775 141.105 164.132C141.105 162.489 141.441 161.071 142.113 159.876C142.785 158.663 143.719 157.729 144.913 157.076C146.127 156.423 147.517 156.096 149.085 156.096C150.635 156.096 152.007 156.413 153.201 157.048C154.396 157.683 155.329 158.597 156.001 159.792C156.673 160.968 157.009 162.359 157.009 163.964ZM151.409 162.592C151.409 161.92 151.185 161.397 150.737 161.024C150.289 160.632 149.729 160.436 149.057 160.436C148.385 160.436 147.835 160.623 147.405 160.996C146.976 161.351 146.696 161.883 146.565 162.592H151.409ZM164.813 151.28V172H159.325V151.28H164.813ZM167.112 164.132C167.112 162.508 167.402 161.089 167.98 159.876C168.578 158.663 169.38 157.729 170.388 157.076C171.415 156.423 172.554 156.096 173.804 156.096C174.887 156.096 175.82 156.311 176.604 156.74C177.388 157.169 177.995 157.748 178.424 158.476V156.292H183.912V172H178.424V169.816C177.995 170.544 177.379 171.123 176.576 171.552C175.792 171.981 174.868 172.196 173.804 172.196C172.554 172.196 171.415 171.869 170.388 171.216C169.38 170.563 168.578 169.629 167.98 168.416C167.402 167.184 167.112 165.756 167.112 164.132ZM178.424 164.132C178.424 163.124 178.144 162.331 177.584 161.752C177.043 161.173 176.371 160.884 175.568 160.884C174.747 160.884 174.066 161.173 173.524 161.752C172.983 162.312 172.712 163.105 172.712 164.132C172.712 165.14 172.983 165.943 173.524 166.54C174.066 167.119 174.747 167.408 175.568 167.408C176.371 167.408 177.043 167.119 177.584 166.54C178.144 165.961 178.424 165.159 178.424 164.132ZM207.634 156.152C209.612 156.152 211.162 156.749 212.282 157.944C213.42 159.139 213.99 160.772 213.99 162.844V172H208.502V163.572C208.502 162.732 208.268 162.079 207.802 161.612C207.335 161.145 206.7 160.912 205.898 160.912C205.095 160.912 204.46 161.145 203.994 161.612C203.527 162.079 203.294 162.732 203.294 163.572V172H197.806V163.572C197.806 162.732 197.572 162.079 197.106 161.612C196.658 161.145 196.032 160.912 195.23 160.912C194.408 160.912 193.764 161.145 193.298 161.612C192.831 162.079 192.598 162.732 192.598 163.572V172H187.11V156.292H192.598V158.364C193.083 157.692 193.708 157.16 194.474 156.768C195.258 156.357 196.154 156.152 197.162 156.152C198.319 156.152 199.346 156.404 200.242 156.908C201.156 157.412 201.875 158.121 202.398 159.036C202.958 158.177 203.695 157.487 204.61 156.964C205.524 156.423 206.532 156.152 207.634 156.152ZM216.17 164.132C216.17 162.508 216.46 161.089 217.038 159.876C217.636 158.663 218.438 157.729 219.446 157.076C220.473 156.423 221.612 156.096 222.862 156.096C223.945 156.096 224.878 156.311 225.662 156.74C226.446 157.169 227.053 157.748 227.482 158.476V156.292H232.97V172H227.482V169.816C227.053 170.544 226.437 171.123 225.634 171.552C224.85 171.981 223.926 172.196 222.862 172.196C221.612 172.196 220.473 171.869 219.446 171.216C218.438 170.563 217.636 169.629 217.038 168.416C216.46 167.184 216.17 165.756 216.17 164.132ZM227.482 164.132C227.482 163.124 227.202 162.331 226.642 161.752C226.101 161.173 225.429 160.884 224.626 160.884C223.805 160.884 223.124 161.173 222.582 161.752C222.041 162.312 221.77 163.105 221.77 164.132C221.77 165.14 222.041 165.943 222.582 166.54C223.124 167.119 223.805 167.408 224.626 167.408C225.429 167.408 226.101 167.119 226.642 166.54C227.202 165.961 227.482 165.159 227.482 164.132ZM245.436 167.324V172H243.056C239.042 172 237.036 170.012 237.036 166.036V160.856H235.104V156.292H237.036V152.484H242.552V156.292H245.408V160.856H242.552V166.12C242.552 166.549 242.645 166.857 242.832 167.044C243.037 167.231 243.373 167.324 243.84 167.324H245.436ZM261.264 152.26C263.336 152.26 265.147 152.68 266.696 153.52C268.264 154.341 269.468 155.499 270.308 156.992C271.148 158.485 271.568 160.193 271.568 162.116C271.568 164.02 271.139 165.719 270.28 167.212C269.44 168.705 268.236 169.881 266.668 170.74C265.119 171.58 263.318 172 261.264 172H253.452V152.26H261.264ZM260.844 167.156C262.45 167.156 263.71 166.717 264.624 165.84C265.539 164.963 265.996 163.721 265.996 162.116C265.996 160.492 265.539 159.241 264.624 158.364C263.71 157.468 262.45 157.02 260.844 157.02H258.94V167.156H260.844ZM273.216 164.132C273.216 162.508 273.505 161.089 274.084 159.876C274.681 158.663 275.484 157.729 276.492 157.076C277.519 156.423 278.657 156.096 279.908 156.096C280.991 156.096 281.924 156.311 282.708 156.74C283.492 157.169 284.099 157.748 284.528 158.476V156.292H290.016V172H284.528V169.816C284.099 170.544 283.483 171.123 282.68 171.552C281.896 171.981 280.972 172.196 279.908 172.196C278.657 172.196 277.519 171.869 276.492 171.216C275.484 170.563 274.681 169.629 274.084 168.416C273.505 167.184 273.216 165.756 273.216 164.132ZM284.528 164.132C284.528 163.124 284.248 162.331 283.688 161.752C283.147 161.173 282.475 160.884 281.672 160.884C280.851 160.884 280.169 161.173 279.628 161.752C279.087 162.312 278.816 163.105 278.816 164.132C278.816 165.14 279.087 165.943 279.628 166.54C280.169 167.119 280.851 167.408 281.672 167.408C282.475 167.408 283.147 167.119 283.688 166.54C284.248 165.961 284.528 165.159 284.528 164.132ZM302.481 167.324V172H300.101C296.088 172 294.081 170.012 294.081 166.036V160.856H292.149V156.292H294.081V152.484H299.597V156.292H302.453V160.856H299.597V166.12C299.597 166.549 299.691 166.857 299.877 167.044C300.083 167.231 300.419 167.324 300.885 167.324H302.481ZM304.172 164.132C304.172 162.508 304.462 161.089 305.04 159.876C305.638 158.663 306.44 157.729 307.448 157.076C308.475 156.423 309.614 156.096 310.864 156.096C311.947 156.096 312.88 156.311 313.664 156.74C314.448 157.169 315.055 157.748 315.484 158.476V156.292H320.972V172H315.484V169.816C315.055 170.544 314.439 171.123 313.636 171.552C312.852 171.981 311.928 172.196 310.864 172.196C309.614 172.196 308.475 171.869 307.448 171.216C306.44 170.563 305.638 169.629 305.04 168.416C304.462 167.184 304.172 165.756 304.172 164.132ZM315.484 164.132C315.484 163.124 315.204 162.331 314.644 161.752C314.103 161.173 313.431 160.884 312.628 160.884C311.807 160.884 311.126 161.173 310.584 161.752C310.043 162.312 309.772 163.105 309.772 164.132C309.772 165.14 310.043 165.943 310.584 166.54C311.126 167.119 311.807 167.408 312.628 167.408C313.431 167.408 314.103 167.119 314.644 166.54C315.204 165.961 315.484 165.159 315.484 164.132ZM334.446 156.152C336.256 156.152 337.694 156.759 338.758 157.972C339.822 159.167 340.354 160.791 340.354 162.844V172H334.866V163.572C334.866 162.676 334.632 161.976 334.166 161.472C333.699 160.949 333.074 160.688 332.29 160.688C331.468 160.688 330.824 160.949 330.358 161.472C329.891 161.976 329.658 162.676 329.658 163.572V172H324.17V156.292H329.658V158.532C330.143 157.823 330.796 157.253 331.618 156.824C332.439 156.376 333.382 156.152 334.446 156.152ZM349.231 156.096C350.295 156.096 351.219 156.311 352.003 156.74C352.806 157.169 353.422 157.748 353.851 158.476V156.292H359.339V171.832C359.339 173.307 359.059 174.632 358.499 175.808C357.939 177.003 357.062 177.955 355.867 178.664C354.691 179.373 353.198 179.728 351.387 179.728C348.96 179.728 347.019 179.159 345.563 178.02C344.107 176.881 343.276 175.332 343.071 173.372H348.475C348.587 173.876 348.867 174.268 349.315 174.548C349.763 174.828 350.342 174.968 351.051 174.968C352.918 174.968 353.851 173.923 353.851 171.832V169.816C353.422 170.544 352.806 171.123 352.003 171.552C351.219 171.981 350.295 172.196 349.231 172.196C347.98 172.196 346.842 171.869 345.815 171.216C344.807 170.563 344.004 169.629 343.407 168.416C342.828 167.184 342.539 165.756 342.539 164.132C342.539 162.508 342.828 161.089 343.407 159.876C344.004 158.663 344.807 157.729 345.815 157.076C346.842 156.423 347.98 156.096 349.231 156.096ZM353.851 164.132C353.851 163.124 353.571 162.331 353.011 161.752C352.47 161.173 351.798 160.884 350.995 160.884C350.174 160.884 349.492 161.173 348.951 161.752C348.41 162.312 348.139 163.105 348.139 164.132C348.139 165.14 348.41 165.943 348.951 166.54C349.492 167.119 350.174 167.408 350.995 167.408C351.798 167.408 352.47 167.119 353.011 166.54C353.571 165.961 353.851 165.159 353.851 164.132ZM367.07 164.132C367.07 162.508 367.359 161.089 367.938 159.876C368.535 158.663 369.347 157.729 370.374 157.076C371.4 156.423 372.539 156.096 373.79 156.096C374.798 156.096 375.694 156.311 376.478 156.74C377.28 157.151 377.906 157.72 378.354 158.448V151.28H383.87V172H378.354V169.816C377.924 170.544 377.318 171.123 376.534 171.552C375.75 171.981 374.826 172.196 373.762 172.196C372.511 172.196 371.372 171.869 370.346 171.216C369.338 170.563 368.535 169.629 367.938 168.416C367.359 167.184 367.07 165.756 367.07 164.132ZM378.382 164.132C378.382 163.124 378.102 162.331 377.542 161.752C377 161.173 376.328 160.884 375.526 160.884C374.704 160.884 374.023 161.173 373.482 161.752C372.94 162.312 372.67 163.105 372.67 164.132C372.67 165.14 372.94 165.943 373.482 166.54C374.023 167.119 374.704 167.408 375.526 167.408C376.328 167.408 377 167.119 377.542 166.54C378.102 165.961 378.382 165.159 378.382 164.132ZM389.839 154.836C388.868 154.836 388.084 154.575 387.487 154.052C386.908 153.511 386.619 152.839 386.619 152.036C386.619 151.215 386.908 150.533 387.487 149.992C388.084 149.451 388.868 149.18 389.839 149.18C390.791 149.18 391.556 149.451 392.135 149.992C392.732 150.533 393.031 151.215 393.031 152.036C393.031 152.839 392.732 153.511 392.135 154.052C391.556 154.575 390.791 154.836 389.839 154.836ZM392.555 156.292V172H387.067V156.292H392.555ZM406.668 156.656V159.876H412.968V164.048H406.668V167.604H413.808V172H401.18V152.26H413.808V156.656H406.668ZM415.693 164.132C415.693 162.508 415.983 161.089 416.561 159.876C417.159 158.663 417.971 157.729 418.997 157.076C420.024 156.423 421.163 156.096 422.413 156.096C423.421 156.096 424.317 156.311 425.101 156.74C425.904 157.151 426.529 157.72 426.977 158.448V151.28H432.493V172H426.977V169.816C426.548 170.544 425.941 171.123 425.157 171.552C424.373 171.981 423.449 172.196 422.385 172.196C421.135 172.196 419.996 171.869 418.969 171.216C417.961 170.563 417.159 169.629 416.561 168.416C415.983 167.184 415.693 165.756 415.693 164.132ZM427.005 164.132C427.005 163.124 426.725 162.331 426.165 161.752C425.624 161.173 424.952 160.884 424.149 160.884C423.328 160.884 422.647 161.173 422.105 161.752C421.564 162.312 421.293 163.105 421.293 164.132C421.293 165.14 421.564 165.943 422.105 166.54C422.647 167.119 423.328 167.408 424.149 167.408C424.952 167.408 425.624 167.119 426.165 166.54C426.725 165.961 427.005 165.159 427.005 164.132ZM451.763 156.292V172H446.247V169.76C445.78 170.469 445.136 171.048 444.315 171.496C443.493 171.925 442.551 172.14 441.487 172.14C439.657 172.14 438.211 171.543 437.147 170.348C436.101 169.135 435.579 167.492 435.579 165.42V156.292H441.039V164.72C441.039 165.616 441.272 166.325 441.739 166.848C442.224 167.352 442.859 167.604 443.643 167.604C444.445 167.604 445.08 167.352 445.547 166.848C446.013 166.325 446.247 165.616 446.247 164.72V156.292H451.763ZM462.404 172.196C460.108 172.196 458.223 171.655 456.748 170.572C455.273 169.471 454.48 167.903 454.368 165.868H460.22C460.276 166.559 460.481 167.063 460.836 167.38C461.191 167.697 461.648 167.856 462.208 167.856C462.712 167.856 463.123 167.735 463.44 167.492C463.776 167.231 463.944 166.876 463.944 166.428C463.944 165.849 463.673 165.401 463.132 165.084C462.591 164.767 461.713 164.412 460.5 164.02C459.212 163.591 458.167 163.18 457.364 162.788C456.58 162.377 455.889 161.789 455.292 161.024C454.713 160.24 454.424 159.223 454.424 157.972C454.424 156.703 454.741 155.62 455.376 154.724C456.011 153.809 456.888 153.119 458.008 152.652C459.128 152.185 460.397 151.952 461.816 151.952C464.112 151.952 465.941 152.493 467.304 153.576C468.685 154.64 469.423 156.143 469.516 158.084H463.552C463.533 157.487 463.347 157.039 462.992 156.74C462.656 156.441 462.217 156.292 461.676 156.292C461.265 156.292 460.929 156.413 460.668 156.656C460.407 156.899 460.276 157.244 460.276 157.692C460.276 158.065 460.416 158.392 460.696 158.672C460.995 158.933 461.359 159.167 461.788 159.372C462.217 159.559 462.852 159.801 463.692 160.1C464.943 160.529 465.969 160.959 466.772 161.388C467.593 161.799 468.293 162.387 468.872 163.152C469.469 163.899 469.768 164.851 469.768 166.008C469.768 167.184 469.469 168.239 468.872 169.172C468.293 170.105 467.444 170.843 466.324 171.384C465.223 171.925 463.916 172.196 462.404 172.196ZM471.493 164.132C471.493 162.508 471.829 161.089 472.501 159.876C473.173 158.663 474.107 157.729 475.301 157.076C476.515 156.423 477.896 156.096 479.445 156.096C481.443 156.096 483.123 156.647 484.485 157.748C485.848 158.831 486.725 160.352 487.117 162.312H481.293C480.957 161.285 480.304 160.772 479.333 160.772C478.643 160.772 478.092 161.061 477.681 161.64C477.289 162.2 477.093 163.031 477.093 164.132C477.093 165.233 477.289 166.073 477.681 166.652C478.092 167.231 478.643 167.52 479.333 167.52C480.323 167.52 480.976 167.007 481.293 165.98H487.117C486.725 167.921 485.848 169.443 484.485 170.544C483.123 171.645 481.443 172.196 479.445 172.196C477.896 172.196 476.515 171.869 475.301 171.216C474.107 170.563 473.173 169.629 472.501 168.416C471.829 167.203 471.493 165.775 471.493 164.132ZM488.571 164.132C488.571 162.508 488.86 161.089 489.439 159.876C490.036 158.663 490.839 157.729 491.847 157.076C492.874 156.423 494.012 156.096 495.263 156.096C496.346 156.096 497.279 156.311 498.063 156.74C498.847 157.169 499.454 157.748 499.883 158.476V156.292H505.371V172H499.883V169.816C499.454 170.544 498.838 171.123 498.035 171.552C497.251 171.981 496.327 172.196 495.263 172.196C494.012 172.196 492.874 171.869 491.847 171.216C490.839 170.563 490.036 169.629 489.439 168.416C488.86 167.184 488.571 165.756 488.571 164.132ZM499.883 164.132C499.883 163.124 499.603 162.331 499.043 161.752C498.502 161.173 497.83 160.884 497.027 160.884C496.206 160.884 495.524 161.173 494.983 161.752C494.442 162.312 494.171 163.105 494.171 164.132C494.171 165.14 494.442 165.943 494.983 166.54C495.524 167.119 496.206 167.408 497.027 167.408C497.83 167.408 498.502 167.119 499.043 166.54C499.603 165.961 499.883 165.159 499.883 164.132ZM518.844 156.152C520.655 156.152 522.092 156.759 523.156 157.972C524.22 159.167 524.752 160.791 524.752 162.844V172H519.264V163.572C519.264 162.676 519.031 161.976 518.564 161.472C518.098 160.949 517.472 160.688 516.688 160.688C515.867 160.688 515.223 160.949 514.756 161.472C514.29 161.976 514.056 162.676 514.056 163.572V172H508.568V156.292H514.056V158.532C514.542 157.823 515.195 157.253 516.016 156.824C516.838 156.376 517.78 156.152 518.844 156.152ZM132.38 192.26C134.452 192.26 136.263 192.68 137.812 193.52C139.38 194.341 140.584 195.499 141.424 196.992C142.264 198.485 142.684 200.193 142.684 202.116C142.684 204.02 142.255 205.719 141.396 207.212C140.556 208.705 139.352 209.881 137.784 210.74C136.235 211.58 134.433 212 132.38 212H124.568V192.26H132.38ZM131.96 207.156C133.565 207.156 134.825 206.717 135.74 205.84C136.655 204.963 137.112 203.721 137.112 202.116C137.112 200.492 136.655 199.241 135.74 198.364C134.825 197.468 133.565 197.02 131.96 197.02H130.056V207.156H131.96ZM144.332 204.132C144.332 202.508 144.621 201.089 145.2 199.876C145.797 198.663 146.6 197.729 147.608 197.076C148.635 196.423 149.773 196.096 151.024 196.096C152.107 196.096 153.04 196.311 153.824 196.74C154.608 197.169 155.215 197.748 155.644 198.476V196.292H161.132V212H155.644V209.816C155.215 210.544 154.599 211.123 153.796 211.552C153.012 211.981 152.088 212.196 151.024 212.196C149.773 212.196 148.635 211.869 147.608 211.216C146.6 210.563 145.797 209.629 145.2 208.416C144.621 207.184 144.332 205.756 144.332 204.132ZM155.644 204.132C155.644 203.124 155.364 202.331 154.804 201.752C154.263 201.173 153.591 200.884 152.788 200.884C151.967 200.884 151.285 201.173 150.744 201.752C150.203 202.312 149.932 203.105 149.932 204.132C149.932 205.14 150.203 205.943 150.744 206.54C151.285 207.119 151.967 207.408 152.788 207.408C153.591 207.408 154.263 207.119 154.804 206.54C155.364 205.961 155.644 205.159 155.644 204.132ZM172.813 200.856H170.349V212H164.833V200.856H163.125V196.292H164.833V196.152C164.833 194.136 165.421 192.596 166.597 191.532C167.792 190.449 169.5 189.908 171.721 189.908C172.169 189.908 172.514 189.917 172.757 189.936V194.612C172.608 194.593 172.402 194.584 172.141 194.584C171.544 194.584 171.105 194.724 170.825 195.004C170.545 195.265 170.386 195.695 170.349 196.292H172.813V200.856ZM184.112 207.324V212H181.732C177.719 212 175.712 210.012 175.712 206.036V200.856H173.78V196.292H175.712V192.484H181.228V196.292H184.084V200.856H181.228V206.12C181.228 206.549 181.322 206.857 181.508 207.044C181.714 207.231 182.05 207.324 182.516 207.324H184.112ZM185.804 204.132C185.804 202.508 186.093 201.089 186.672 199.876C187.269 198.663 188.072 197.729 189.08 197.076C190.106 196.423 191.245 196.096 192.496 196.096C193.578 196.096 194.512 196.311 195.296 196.74C196.08 197.169 196.686 197.748 197.116 198.476V196.292H202.604V212H197.116V209.816C196.686 210.544 196.07 211.123 195.268 211.552C194.484 211.981 193.56 212.196 192.496 212.196C191.245 212.196 190.106 211.869 189.08 211.216C188.072 210.563 187.269 209.629 186.672 208.416C186.093 207.184 185.804 205.756 185.804 204.132ZM197.116 204.132C197.116 203.124 196.836 202.331 196.276 201.752C195.734 201.173 195.062 200.884 194.26 200.884C193.438 200.884 192.757 201.173 192.216 201.752C191.674 202.312 191.404 203.105 191.404 204.132C191.404 205.14 191.674 205.943 192.216 206.54C192.757 207.119 193.438 207.408 194.26 207.408C195.062 207.408 195.734 207.119 196.276 206.54C196.836 205.961 197.116 205.159 197.116 204.132ZM211.289 199.064C211.905 198.168 212.651 197.459 213.529 196.936C214.406 196.413 215.349 196.152 216.357 196.152V202.004H214.817C213.622 202.004 212.735 202.237 212.157 202.704C211.578 203.171 211.289 203.983 211.289 205.14V212H205.801V196.292H211.289V199.064ZM231.272 212.196C228.976 212.196 227.09 211.655 225.616 210.572C224.141 209.471 223.348 207.903 223.236 205.868H229.088C229.144 206.559 229.349 207.063 229.704 207.38C230.058 207.697 230.516 207.856 231.076 207.856C231.58 207.856 231.99 207.735 232.308 207.492C232.644 207.231 232.812 206.876 232.812 206.428C232.812 205.849 232.541 205.401 232 205.084C231.458 204.767 230.581 204.412 229.368 204.02C228.08 203.591 227.034 203.18 226.232 202.788C225.448 202.377 224.757 201.789 224.16 201.024C223.581 200.24 223.292 199.223 223.292 197.972C223.292 196.703 223.609 195.62 224.244 194.724C224.878 193.809 225.756 193.119 226.876 192.652C227.996 192.185 229.265 191.952 230.684 191.952C232.98 191.952 234.809 192.493 236.172 193.576C237.553 194.64 238.29 196.143 238.384 198.084H232.42C232.401 197.487 232.214 197.039 231.86 196.74C231.524 196.441 231.085 196.292 230.544 196.292C230.133 196.292 229.797 196.413 229.536 196.656C229.274 196.899 229.144 197.244 229.144 197.692C229.144 198.065 229.284 198.392 229.564 198.672C229.862 198.933 230.226 199.167 230.656 199.372C231.085 199.559 231.72 199.801 232.56 200.1C233.81 200.529 234.837 200.959 235.64 201.388C236.461 201.799 237.161 202.387 237.74 203.152C238.337 203.899 238.636 204.851 238.636 206.008C238.636 207.184 238.337 208.239 237.74 209.172C237.161 210.105 236.312 210.843 235.192 211.384C234.09 211.925 232.784 212.196 231.272 212.196ZM256.265 203.964C256.265 204.393 256.237 204.823 256.181 205.252H245.793C245.849 206.111 246.082 206.755 246.493 207.184C246.922 207.595 247.464 207.8 248.117 207.8C249.032 207.8 249.685 207.389 250.077 206.568H255.929C255.686 207.651 255.21 208.621 254.501 209.48C253.81 210.32 252.933 210.983 251.869 211.468C250.805 211.953 249.629 212.196 248.341 212.196C246.792 212.196 245.41 211.869 244.197 211.216C243.002 210.563 242.06 209.629 241.369 208.416C240.697 207.203 240.361 205.775 240.361 204.132C240.361 202.489 240.697 201.071 241.369 199.876C242.041 198.663 242.974 197.729 244.169 197.076C245.382 196.423 246.773 196.096 248.341 196.096C249.89 196.096 251.262 196.413 252.457 197.048C253.652 197.683 254.585 198.597 255.257 199.792C255.929 200.968 256.265 202.359 256.265 203.964ZM250.665 202.592C250.665 201.92 250.441 201.397 249.993 201.024C249.545 200.632 248.985 200.436 248.313 200.436C247.641 200.436 247.09 200.623 246.661 200.996C246.232 201.351 245.952 201.883 245.821 202.592H250.665ZM268.409 212L264.069 205.56V212H258.581V191.28H264.069V202.452L268.409 196.292H274.989L268.801 204.188L275.101 212H268.409ZM275.884 204.132C275.884 202.508 276.173 201.089 276.752 199.876C277.349 198.663 278.152 197.729 279.16 197.076C280.186 196.423 281.325 196.096 282.576 196.096C283.658 196.096 284.592 196.311 285.376 196.74C286.16 197.169 286.766 197.748 287.196 198.476V196.292H292.684V212H287.196V209.816C286.766 210.544 286.15 211.123 285.348 211.552C284.564 211.981 283.64 212.196 282.576 212.196C281.325 212.196 280.186 211.869 279.16 211.216C278.152 210.563 277.349 209.629 276.752 208.416C276.173 207.184 275.884 205.756 275.884 204.132ZM287.196 204.132C287.196 203.124 286.916 202.331 286.356 201.752C285.814 201.173 285.142 200.884 284.34 200.884C283.518 200.884 282.837 201.173 282.296 201.752C281.754 202.312 281.484 203.105 281.484 204.132C281.484 205.14 281.754 205.943 282.296 206.54C282.837 207.119 283.518 207.408 284.34 207.408C285.142 207.408 285.814 207.119 286.356 206.54C286.916 205.961 287.196 205.159 287.196 204.132ZM301.369 199.064C301.985 198.168 302.732 197.459 303.609 196.936C304.486 196.413 305.429 196.152 306.437 196.152V202.004H304.897C303.702 202.004 302.816 202.237 302.237 202.704C301.658 203.171 301.369 203.983 301.369 205.14V212H295.881V196.292H301.369V199.064ZM307.578 204.132C307.578 202.508 307.868 201.089 308.446 199.876C309.044 198.663 309.846 197.729 310.854 197.076C311.881 196.423 313.02 196.096 314.27 196.096C315.353 196.096 316.286 196.311 317.07 196.74C317.854 197.169 318.461 197.748 318.89 198.476V196.292H324.378V212H318.89V209.816C318.461 210.544 317.845 211.123 317.042 211.552C316.258 211.981 315.334 212.196 314.27 212.196C313.02 212.196 311.881 211.869 310.854 211.216C309.846 210.563 309.044 209.629 308.446 208.416C307.868 207.184 307.578 205.756 307.578 204.132ZM318.89 204.132C318.89 203.124 318.61 202.331 318.05 201.752C317.509 201.173 316.837 200.884 316.034 200.884C315.213 200.884 314.532 201.173 313.99 201.752C313.449 202.312 313.178 203.105 313.178 204.132C313.178 205.14 313.449 205.943 313.99 206.54C314.532 207.119 315.213 207.408 316.034 207.408C316.837 207.408 317.509 207.119 318.05 206.54C318.61 205.961 318.89 205.159 318.89 204.132ZM337.852 196.152C339.662 196.152 341.1 196.759 342.164 197.972C343.228 199.167 343.76 200.791 343.76 202.844V212H338.272V203.572C338.272 202.676 338.038 201.976 337.572 201.472C337.105 200.949 336.48 200.688 335.696 200.688C334.874 200.688 334.23 200.949 333.764 201.472C333.297 201.976 333.064 202.676 333.064 203.572V212H327.576V196.292H333.064V198.532C333.549 197.823 334.202 197.253 335.024 196.824C335.845 196.376 336.788 196.152 337.852 196.152ZM352.637 196.096C353.701 196.096 354.625 196.311 355.409 196.74C356.212 197.169 356.828 197.748 357.257 198.476V196.292H362.745V211.832C362.745 213.307 362.465 214.632 361.905 215.808C361.345 217.003 360.468 217.955 359.273 218.664C358.097 219.373 356.604 219.728 354.793 219.728C352.366 219.728 350.425 219.159 348.969 218.02C347.513 216.881 346.682 215.332 346.477 213.372H351.881C351.993 213.876 352.273 214.268 352.721 214.548C353.169 214.828 353.748 214.968 354.457 214.968C356.324 214.968 357.257 213.923 357.257 211.832V209.816C356.828 210.544 356.212 211.123 355.409 211.552C354.625 211.981 353.701 212.196 352.637 212.196C351.386 212.196 350.248 211.869 349.221 211.216C348.213 210.563 347.41 209.629 346.813 208.416C346.234 207.184 345.945 205.756 345.945 204.132C345.945 202.508 346.234 201.089 346.813 199.876C347.41 198.663 348.213 197.729 349.221 197.076C350.248 196.423 351.386 196.096 352.637 196.096ZM357.257 204.132C357.257 203.124 356.977 202.331 356.417 201.752C355.876 201.173 355.204 200.884 354.401 200.884C353.58 200.884 352.898 201.173 352.357 201.752C351.816 202.312 351.545 203.105 351.545 204.132C351.545 205.14 351.816 205.943 352.357 206.54C352.898 207.119 353.58 207.408 354.401 207.408C355.204 207.408 355.876 207.119 356.417 206.54C356.977 205.961 357.257 205.159 357.257 204.132ZM373.278 191.252L372.634 204.608H367.958L367.314 191.252H373.278ZM370.31 212.224C369.34 212.224 368.556 211.963 367.958 211.44C367.38 210.899 367.09 210.217 367.09 209.396C367.09 208.575 367.38 207.893 367.958 207.352C368.556 206.811 369.34 206.54 370.31 206.54C371.262 206.54 372.028 206.811 372.606 207.352C373.204 207.893 373.502 208.575 373.502 209.396C373.502 210.199 373.204 210.871 372.606 211.412C372.028 211.953 371.262 212.224 370.31 212.224Z" fill="white"/>
<g clip-path="url(#clip0_524_3888)">
<path d="M443.675 337.426C443.609 337.438 443.511 337.456 443.391 337.478C441.049 337.899 426.892 340.275 412.618 334.362C406.571 331.857 408.634 331.233 395.166 322.524C379.378 312.313 375.326 312.385 374.15 307.624C371.802 298.117 384.338 283.172 392.636 284.156C394.821 284.415 397.16 285.832 400.799 284.871C401.599 284.66 405.099 283.737 406.805 280.586C408.327 277.776 407.038 275.749 407.65 273.444C409.256 267.393 422.65 264.374 434.392 266.507C441.145 267.734 446.398 271.084 456.629 277.734C474.435 289.308 483.338 295.095 485.338 303.961C487.235 312.364 482.683 315.985 485.994 324.981C489.076 333.357 493.972 332.798 495.657 339.574C498.368 350.477 488.305 362.444 484.114 367.429C479.518 372.895 475.123 375.895 469.288 379.877C461.964 384.875 458.302 387.375 453.899 387.12C445.916 386.659 422.197 388.229 421.887 381.045C421.771 378.353 393.003 380.557 407.169 351.573C408.906 348.018 442.944 351.815 443.393 349.773" fill="#2F2E41"/>
<path d="M457.452 355.973L481.918 395.661L411.688 411.107L416.161 361.419L457.452 355.973Z" fill="#FFB6B6"/>
<path opacity="0.1" d="M457.452 355.973L481.918 395.661L411.688 411.107L416.161 361.419L457.452 355.973Z" fill="black"/>
<path d="M406.427 385.364L482.175 381.932L515.841 401.954L514.263 530.666L549.506 603.316L371.709 566.705L385.386 511.788L379.074 396.233L406.427 385.364Z" fill="#FF6A3B"/>
<path d="M145.04 635.41C142.622 631.265 142.336 626.143 144.276 621.709L173.106 555.834C175.258 550.917 179.883 547.741 184.89 547.741H549.034C553.901 547.741 558.33 550.653 560.59 555.34L591.492 619.4C593.628 623.828 593.488 629.029 591.116 633.313C588.745 637.597 584.585 640.166 579.987 640.185L156.111 642H156.058C151.565 642 147.448 639.54 145.04 635.41Z" fill="white"/>
<path d="M145.04 635.41C142.622 631.265 142.336 626.143 144.276 621.709L173.106 555.834C175.258 550.917 179.883 547.741 184.89 547.741H549.034C553.901 547.741 558.33 550.653 560.59 555.34L591.492 619.4C593.628 623.828 593.488 629.029 591.116 633.313C588.745 637.597 584.585 640.166 579.987 640.185L156.111 642H156.058C151.565 642 147.448 639.54 145.04 635.41ZM184.89 549.23C180.409 549.23 176.269 552.074 174.343 556.474L145.513 622.349C143.777 626.317 144.032 630.901 146.197 634.612C148.353 638.308 152.036 640.51 156.058 640.51H156.106L579.982 638.696C584.097 638.678 587.82 636.378 589.943 632.544C592.065 628.71 592.191 624.055 590.279 620.092L559.378 556.032C557.354 551.837 553.391 549.23 549.034 549.23H184.89Z" fill="#3F3D56"/>
<path d="M515.131 616.816L364.859 605.581C362.64 605.415 360.871 603.788 360.351 601.437C359.831 599.086 360.728 596.762 362.635 595.518L395.864 573.835C396.708 573.285 397.676 573.017 398.657 573.068L528.641 579.494C530.36 579.578 531.895 580.599 532.747 582.224C533.6 583.849 533.627 585.805 532.82 587.457L519.878 613.95C519.01 615.728 517.307 616.829 515.473 616.829C515.36 616.829 515.246 616.825 515.131 616.816Z" fill="#3F3D56"/>
<path d="M363.556 599.026L513.211 610.181L525.046 582.436L396.724 576.964L363.556 599.026Z" fill="white"/>
<path d="M437.2 369.342C462.036 369.342 482.171 347.446 482.171 320.436C482.171 293.426 462.036 271.53 437.2 271.53C412.363 271.53 392.229 293.426 392.229 320.436C392.229 347.446 412.363 369.342 437.2 369.342Z" fill="#FFB6B6"/>
<path d="M451.685 323.601C451.619 323.613 451.52 323.632 451.4 323.653C449.059 324.075 434.901 326.45 420.627 320.537C414.58 318.032 416.643 317.408 403.176 308.699C387.387 298.488 383.335 298.56 382.159 293.799C379.811 284.292 392.348 269.348 400.645 270.332C402.83 270.591 405.17 272.007 408.809 271.047C409.608 270.836 413.108 269.912 414.814 266.761C416.336 263.951 415.047 261.924 415.659 259.619C417.266 253.569 430.659 250.549 442.401 252.683C449.155 253.91 454.408 257.259 464.638 263.909C482.444 275.483 491.347 281.27 493.348 290.136C495.244 298.54 490.692 302.161 494.003 311.156C497.085 319.532 501.981 318.973 503.666 325.749C506.377 336.653 496.315 348.62 492.123 353.605C487.527 359.07 483.132 362.07 477.297 366.052C469.973 371.051 466.311 373.55 461.908 373.295C453.926 372.834 445.986 364.968 445.677 357.784C445.561 355.092 446.594 354.284 449.149 345.029C450.214 341.173 450.953 337.99 451.402 335.948" fill="#2F2E41"/>
<path d="M482.508 585.627C485.401 585.751 487.603 588.57 487.762 591.625C487.928 594.795 485.901 597.715 483.466 599.225C480.614 600.993 477.053 601.277 473.841 600.972C470.952 600.698 467.809 599.721 465.949 597.127C464.385 594.944 463.81 591.646 465.14 589.168C466.459 586.711 469.265 586.032 471.611 587.018C474.095 588.062 475.656 590.518 475.672 593.42C475.689 596.638 473.98 599.611 471.583 601.39C468.997 603.308 465.742 603.925 462.664 603.918C459.31 603.909 455.97 603.144 452.885 601.722C449.994 600.39 447.106 598.47 445.039 595.86C443.101 593.413 441.941 590.019 443.016 586.845C443.899 584.243 446.128 582.648 448.68 582.868C451.017 583.07 453.381 584.544 454.418 586.893C455.588 589.542 455.063 592.721 453.574 595.09C451.854 597.825 449.135 599.362 446.117 599.584C442.904 599.82 439.723 598.579 437.08 596.659C434.633 594.882 432.482 592.608 429.855 591.129C428.59 590.418 427.214 589.965 425.783 589.967C423.96 589.97 422.207 590.621 420.435 590.998C418.932 591.319 417.383 591.505 415.901 590.983C414.632 590.536 413.445 589.717 412.645 588.543C411.889 587.432 411.624 586.04 412.052 584.721C412.388 583.687 413.913 584.132 413.574 585.177C412.791 587.589 415.477 589.361 417.358 589.583C418.784 589.751 420.256 589.302 421.633 588.952C423.067 588.587 424.534 588.214 426.017 588.254C431.272 588.394 434.745 593.279 438.982 595.929C443.436 598.715 449.959 598.909 452.687 593.373C453.677 591.362 453.882 588.689 452.521 586.81C451.387 585.245 449.373 584.308 447.547 584.612C445.255 584.993 444.113 587.367 444.196 589.728C444.298 592.617 446.15 594.964 448.125 596.695C452.521 600.547 458.35 602.509 463.972 602.164C466.61 602.003 469.414 601.256 471.463 599.346C473.234 597.695 474.442 595.012 474.017 592.441C473.649 590.216 471.933 588.528 469.86 588.304C467.739 588.075 466.082 589.713 465.987 592.016C465.881 594.608 467.296 596.771 469.348 597.951C471.672 599.288 474.488 599.453 477.063 599.308C479.797 599.153 482.647 598.369 484.56 596.105C486.192 594.174 486.811 591.308 485.307 589.073C484.643 588.087 483.645 587.392 482.508 587.343C481.496 587.3 481.491 585.583 482.508 585.627Z" fill="#17B8A6"/>
<path d="M410.585 583.789L411.39 578.378L456.036 485.58C456.775 484.043 458.527 483.447 459.941 484.251C461.354 485.055 461.902 486.961 461.163 488.498L416.537 581.254L412.888 585.099C412.457 585.551 411.834 585.648 411.303 585.346C410.772 585.044 410.49 584.432 410.585 583.789Z" fill="#3F3D56"/>
<path d="M441.018 524.749C446.055 525.78 450.791 528.108 454.831 531.538L455.059 531.592L455.105 531.345L503.763 539.633L500.238 469.25L537.115 447.285L528.399 566.257C526.511 573.855 519.26 578.292 512.308 576.104L450.368 556.729L450.523 555.9L450.306 555.836C445.356 557.288 440.158 557.43 435.148 556.248C422.577 553.482 413.7 544.186 415.321 535.487C416.941 526.787 428.443 521.979 441.018 524.749Z" fill="#FFB6B6"/>
<path d="M474.285 414.539L515.841 401.954C515.841 401.954 537.671 419.401 540.301 438.279C540.614 440.524 541.482 545.108 540.564 547.827C533.767 567.974 496.378 535.814 496.378 535.814L474.285 414.539Z" fill="#FF6A3B"/>
<path d="M294.034 602.509L289.726 598.493C289.084 597.895 288.304 597.499 287.47 597.348L191.48 579.949C189.289 579.552 187.67 577.831 187.256 575.458C186.841 573.085 187.767 570.839 189.672 569.596L223.917 547.251C225.061 546.504 226.408 546.269 227.711 546.589L349.42 576.492C351.786 577.073 353.365 579.153 353.443 581.789C353.52 584.426 352.067 586.611 349.739 587.356L298.851 603.632C298.368 603.787 297.876 603.863 297.387 603.863C296.173 603.863 294.984 603.395 294.034 602.509Z" fill="#3F3D56"/>
<path d="M247.807 472.745C252.565 474.817 256.797 478.098 260.15 482.314L260.364 482.414L260.453 482.182L306.715 500.558L356.111 413.582L383.418 431.987L326.145 531.864C322.941 538.921 315.037 541.748 308.606 538.138L251.287 506.089L251.587 505.308L251.385 505.2C246.27 505.582 241.146 504.627 236.44 502.413C224.6 497.052 217.546 486.063 220.684 477.869C223.823 469.676 235.963 467.381 247.807 472.745Z" fill="#FFB6B6"/>
<path d="M409.099 429.284L387.251 393.754C387.251 393.754 361.252 399.35 350.543 414.48C349.204 416.371 303.219 488.898 302.923 492.063C300.849 514.219 353.7 524.6 353.7 524.6L409.099 429.284Z" fill="#FF6A3B"/>
<path d="M291.656 603.577L181.621 587.037C177.938 586.484 174.899 583.615 173.877 579.727L148.605 483.535C147.749 480.275 148.388 476.899 150.359 474.272C152.33 471.645 155.242 470.288 158.352 470.546L269.212 479.783C273.223 480.117 276.59 483.188 277.591 487.425L302.037 590.919C302.817 594.222 302.037 597.713 299.95 600.258C298.153 602.449 295.605 603.673 292.948 603.673C292.52 603.673 292.088 603.641 291.656 603.577Z" fill="#3F3D56"/>
<path d="M267.13 406.549C267.773 407.318 270.107 406.534 274.749 404.935C278.277 403.72 278.821 403.278 279.156 402.961C280.336 401.846 280.645 400.673 281.814 395.494C283.912 386.198 283.977 385.275 285.054 383.302C285.425 382.623 286.362 381.002 286.133 380.802C285.899 380.595 284.885 382.283 283.01 382.921C281.184 383.543 280.362 382.547 278.802 382.801C276.787 383.128 275.588 385.211 273.708 388.581C272.043 391.566 271.834 392.767 269.5 398.697C268.838 400.377 268.306 401.677 267.897 402.705C263.315 407.356 258.769 412.069 254.266 416.823C254.352 416.678 254.434 416.542 254.505 416.424C256.5 413.093 256.771 411.307 256.742 409.969C256.695 407.801 255.743 406.15 253.841 402.936C251.977 399.786 250.211 397.708 248.083 395.228C245.293 391.977 243.898 390.352 243.343 390.459C239.376 391.222 238.315 420.599 243.306 425.852C242.606 426.397 242.026 426.967 241.606 427.528C237.333 422.369 230.014 416.605 221.905 415.895C216.906 415.457 214.147 417.163 213.29 417.749C209.325 420.458 206.967 425.878 208.151 427.408C209.255 428.834 212.444 425.592 218.694 425.77C223.054 425.895 226.461 427.615 228.483 428.637C232.725 430.779 234.277 432.886 237.405 434.329C235.938 435.643 234.777 437.283 234.047 438.812C233.794 439.096 233.543 439.38 233.29 439.664C230.063 437.686 226.429 436.235 222.619 435.902C217.62 435.464 214.861 437.17 214.004 437.756C211.331 439.581 209.395 442.636 208.775 444.903C208.37 444.992 207.995 445.093 207.652 445.202C206.44 442.225 202.835 439.085 199.483 437.503C193.713 434.779 186.218 435.501 185.416 438.091C185.391 438.174 185.384 438.255 185.373 438.337C186.006 432.787 186.864 427.276 187.937 421.805C187.974 421.961 188.019 422.119 188.08 422.285C189.505 426.176 193.353 429.91 198.6 431.847C202.718 433.368 204.442 432.58 204.88 432.359C205.299 432.149 207.107 431.305 207.55 429.627C208.371 426.517 203.342 417.323 200.17 420.407C189.979 430.315 188.58 422.292 188.112 420.942C188.978 416.616 189.976 412.316 191.094 408.04C191.114 408.066 191.13 408.092 191.15 408.118C193.377 411.055 197.662 413.124 202.698 413.215C206.65 413.287 207.941 412.084 208.264 411.761C208.572 411.452 209.921 410.176 209.876 408.59C209.792 405.65 204.982 403.255 201.134 402.84C197.587 402.457 193.769 403.638 191.874 405.133C192.755 401.931 193.703 398.743 194.713 395.568C197.301 396.718 200.967 396.563 204.569 394.812C207.539 393.369 208.117 391.982 208.254 391.619C208.385 391.272 208.982 389.809 208.44 388.644C207.436 386.483 203.082 386.52 200.079 387.668C198.842 388.141 197.667 388.869 196.66 389.691C198.451 384.488 200.403 379.323 202.502 374.195L200.398 373.623C197.716 380.173 195.378 386.809 193.368 393.518C193.118 391.551 192.492 389.454 191.668 387.751C189.243 382.744 184.065 378.987 182.314 380.206C181.963 380.45 181.816 380.847 181.683 381.319C180.609 385.124 181.418 390.381 184.245 395.211C186.464 399.002 188.172 399.535 188.618 399.655C188.993 399.757 190.445 400.192 191.637 399.631C190.835 402.62 190.093 405.622 189.417 408.638C188.603 406.44 187 404.099 185.303 402.48C181.392 398.747 175.321 397.253 174.086 399.072C173.84 399.436 173.832 399.864 173.863 400.358C174.112 404.328 176.597 408.923 180.825 412.334C184.144 415.011 185.915 414.843 186.371 414.782C186.639 414.747 187.448 414.659 188.229 414.275C187.504 417.939 186.871 421.62 186.323 425.317C185.228 421.182 181.508 416.022 177.997 417.664C171.766 420.576 164.442 416.102 163.636 418.059C163.426 418.568 163.6 419.093 163.801 419.662C165.415 424.246 169.873 428.687 175.994 431.045C180.799 432.896 182.831 432.001 183.348 431.751C183.69 431.585 184.82 431.071 185.662 430.119C185.056 434.869 184.593 439.644 184.266 444.44C182.967 441.355 179.308 438.106 175.883 436.43C169.874 433.491 162.016 434.135 161.143 436.836C160.969 437.376 161.106 437.897 161.312 438.482C162.969 443.186 167.545 447.744 173.828 450.165C178.759 452.065 180.845 451.147 181.375 450.889C181.763 450.701 183.131 450.08 184.003 448.899C183.891 451.116 183.805 453.337 183.751 455.562C183.735 456.195 183.726 456.829 183.715 457.463C183.644 457.587 183.582 457.715 183.541 457.848C183.373 458.391 183.487 458.914 183.685 459.486C183.68 459.888 183.678 460.29 183.676 460.693C182.576 459.609 181.265 457.98 179.688 455.658C178.265 453.563 176.913 455.1 176.045 456.884C174.684 456.554 173.386 456.758 172.365 457.795C165.518 464.751 157.839 461.061 157.73 463.135C157.699 463.733 157.993 464.209 158.365 464.725C161.354 468.878 167.223 471.908 174.195 472.227C179.667 472.478 181.495 470.861 181.953 470.426C182.113 470.273 182.474 469.943 182.864 469.479C183.177 469.751 183.482 469.998 183.788 470.223C183.909 474.205 184.124 478.182 184.443 482.152C184.184 482.177 183.935 482.223 183.751 482.244C181.1 482.537 180.207 478.648 176.203 477.228C174.873 476.756 172.312 476.241 170.962 477.228C170.767 477.37 170.104 477.904 169.075 478.368C168.466 478.642 168.001 478.769 167.817 478.824C166.174 479.312 164.652 480.653 163.624 481.56C161.69 483.264 160.723 484.116 160.269 485.664C160.126 486.151 159.724 487.521 160.269 488.856C160.526 489.486 161.124 490.424 163.414 491.364C164.775 491.922 168.745 493.55 173.477 491.82C174.555 491.426 173.732 491.567 177.88 489.312C181.143 487.538 183.052 486.689 183.331 484.98C183.43 484.379 183.33 483.646 183.751 483.384C183.984 483.238 184.266 483.309 184.548 483.419C184.823 486.611 185.166 489.797 185.581 492.977H181.847C176.889 492.977 172.441 495.978 170.239 500.809L156.272 531.453C155.39 533.387 154.924 535.55 154.924 537.709V616.506C154.924 624.275 160.736 630.595 167.88 630.595H200.481C207.625 630.595 213.437 624.275 213.437 616.506V543.95C213.437 542.181 213.136 540.449 212.542 538.802L199.23 501.919C197.616 497.446 194.119 494.281 189.939 493.302C191.28 491.573 192.623 489.846 193.976 488.125C195.68 489.019 197.554 489.753 199.57 490.268C204.901 491.631 206.976 490.416 207.5 490.082C208.001 489.763 210.174 488.467 210.542 486.305C210.581 486.073 210.597 485.839 210.594 485.603C216.055 490.431 218.904 492.811 220.985 492.017C222.775 491.335 223.797 489.099 224.381 487.093C224.992 487.186 225.64 487.28 226.331 487.38C233.811 488.467 237.58 488.97 239.022 487.044C241.017 484.377 239.123 479.236 238.601 477.819C237.467 474.739 235.721 472.865 234.637 471.725C233.229 470.244 229.216 466.025 222.898 465.462C221.525 465.34 220.291 465.434 219.034 465.72C218.596 465.284 218.134 464.857 217.625 464.452C216.656 463.679 215.698 463.107 214.667 462.66C216.248 460.776 217.834 458.898 219.427 457.028C219.679 457.152 219.918 457.273 220.138 457.384C225.357 460.02 226.504 462.601 231.522 463.96C233.799 464.576 236.377 465.274 237.015 464.225C238.149 462.361 233.337 454.691 225.901 449.502C226.402 448.924 226.905 448.349 227.407 447.773C228.087 448.083 228.686 448.386 229.197 448.643C234.416 451.279 235.562 453.86 240.581 455.219C242.858 455.836 245.435 456.534 246.074 455.484C247.085 453.821 243.363 447.534 237.268 442.512C238.942 441.934 241.162 441.293 244.037 441.375C248.398 441.5 251.804 443.22 253.827 444.242C259.045 446.877 260.192 449.459 265.211 450.817C267.487 451.434 270.065 452.132 270.703 451.082C272.389 448.311 260.942 432.698 247.249 431.5C246.186 431.407 245.231 431.415 244.367 431.484C244.248 431.269 244.118 431.048 243.981 430.824C248.614 430.986 257.662 429.545 265.363 435.425C267.584 437.121 271.898 441.109 279.117 444.386C281.425 445.433 282.585 445.948 282.904 445.518C284.048 443.978 274.537 431.309 261.155 425.068C255.85 422.594 252.572 422.359 250.24 422.734C250.6 422.289 250.95 421.829 251.287 421.367C256.498 415.81 261.774 410.31 267.098 404.885C266.84 405.751 266.848 406.213 267.13 406.549ZM200.262 475.719C194.377 473.647 187.251 474.76 185.392 477.118C185.13 475.028 184.903 472.936 184.715 470.839C187.396 472.468 190.194 472.904 195.501 473.675C197.762 474.003 199.678 474.276 201.299 474.447C201.516 475.089 201.748 475.666 202.018 476.219C202.049 476.283 202.083 476.344 202.114 476.407L202.067 476.465C201.463 476.18 200.858 475.929 200.262 475.719ZM184.626 447.649C184.794 447.043 184.797 446.398 184.669 445.733C184.852 443.325 185.081 440.923 185.351 438.529C185.344 438.896 185.451 439.263 185.597 439.66C187.233 444.129 191.654 448.418 197.68 450.643C198.804 451.058 199.768 451.32 200.599 451.48C200.234 452.172 199.954 452.847 199.768 453.472C197.714 451.677 195.069 450.372 192.069 451.756C191.252 452.133 190.767 453.511 190.346 455.16C187.575 455.212 185.258 455.841 184.155 456.905C184.161 456.461 184.159 456.018 184.17 455.574C184.232 453.04 184.347 450.515 184.509 447.997C184.553 447.884 184.593 447.769 184.626 447.649ZM184.163 460.68C184.282 460.946 184.413 461.211 184.549 461.475C184.426 461.376 184.3 461.27 184.17 461.155C184.167 460.997 184.166 460.838 184.163 460.68ZM188.896 493.107C188.573 493.061 188.247 493.028 187.918 493.007C187.16 488.911 186.459 484.817 185.873 480.715C187.415 483.377 189.932 485.814 193.138 487.662C191.715 489.472 190.304 491.289 188.896 493.107ZM213.736 462.297C211.729 461.596 209.373 461.261 206.114 460.849C205.288 459.6 204.436 458.681 203.807 458.019C203.466 457.66 202.943 456.949 202.265 456.118C204.022 455.504 206.644 454.412 210.349 454.518C213.717 454.614 216.511 455.661 218.543 456.604C216.934 458.494 215.333 460.393 213.736 462.297ZM225.11 448.965C223.138 447.669 220.999 446.56 218.747 445.78C218.966 445.777 219.181 445.77 219.407 445.777C222.2 445.857 224.598 446.591 226.495 447.377C226.033 447.906 225.571 448.435 225.11 448.965Z" fill="#CCCCCC"/>
</g>
<defs>
<clipPath id="clip0_524_3888">
<rect width="450" height="390" fill="white" transform="translate(143 252)"/>
</clipPath>
</defs>
</svg>
