<svg width="738" height="798" viewBox="0 0 738 798" fill="none" xmlns="http://www.w3.org/2000/svg">
<rect width="738" height="798" fill="#0F67A6"/>
<rect width="649" height="684" transform="translate(44 57)" fill="#0F67A6"/>
<path d="M132.016 172.196C129.72 172.196 127.835 171.655 126.36 170.572C124.885 169.471 124.092 167.903 123.98 165.868H129.832C129.888 166.559 130.093 167.063 130.448 167.38C130.803 167.697 131.26 167.856 131.82 167.856C132.324 167.856 132.735 167.735 133.052 167.492C133.388 167.231 133.556 166.876 133.556 166.428C133.556 165.849 133.285 165.401 132.744 165.084C132.203 164.767 131.325 164.412 130.112 164.02C128.824 163.591 127.779 163.18 126.976 162.788C126.192 162.377 125.501 161.789 124.904 161.024C124.325 160.24 124.036 159.223 124.036 157.972C124.036 156.703 124.353 155.62 124.988 154.724C125.623 153.809 126.5 153.119 127.62 152.652C128.74 152.185 130.009 151.952 131.428 151.952C133.724 151.952 135.553 152.493 136.916 153.576C138.297 154.64 139.035 156.143 139.128 158.084H133.164C133.145 157.487 132.959 157.039 132.604 156.74C132.268 156.441 131.829 156.292 131.288 156.292C130.877 156.292 130.541 156.413 130.28 156.656C130.019 156.899 129.888 157.244 129.888 157.692C129.888 158.065 130.028 158.392 130.308 158.672C130.607 158.933 130.971 159.167 131.4 159.372C131.829 159.559 132.464 159.801 133.304 160.1C134.555 160.529 135.581 160.959 136.384 161.388C137.205 161.799 137.905 162.387 138.484 163.152C139.081 163.899 139.38 164.851 139.38 166.008C139.38 167.184 139.081 168.239 138.484 169.172C137.905 170.105 137.056 170.843 135.936 171.384C134.835 171.925 133.528 172.196 132.016 172.196ZM157.009 163.964C157.009 164.393 156.981 164.823 156.925 165.252H146.537C146.593 166.111 146.827 166.755 147.237 167.184C147.667 167.595 148.208 167.8 148.861 167.8C149.776 167.8 150.429 167.389 150.821 166.568H156.673C156.431 167.651 155.955 168.621 155.245 169.48C154.555 170.32 153.677 170.983 152.613 171.468C151.549 171.953 150.373 172.196 149.085 172.196C147.536 172.196 146.155 171.869 144.941 171.216C143.747 170.563 142.804 169.629 142.113 168.416C141.441 167.203 141.105 165.775 141.105 164.132C141.105 162.489 141.441 161.071 142.113 159.876C142.785 158.663 143.719 157.729 144.913 157.076C146.127 156.423 147.517 156.096 149.085 156.096C150.635 156.096 152.007 156.413 153.201 157.048C154.396 157.683 155.329 158.597 156.001 159.792C156.673 160.968 157.009 162.359 157.009 163.964ZM151.409 162.592C151.409 161.92 151.185 161.397 150.737 161.024C150.289 160.632 149.729 160.436 149.057 160.436C148.385 160.436 147.835 160.623 147.405 160.996C146.976 161.351 146.696 161.883 146.565 162.592H151.409ZM164.813 151.28V172H159.325V151.28H164.813ZM167.112 164.132C167.112 162.508 167.402 161.089 167.98 159.876C168.578 158.663 169.38 157.729 170.388 157.076C171.415 156.423 172.554 156.096 173.804 156.096C174.887 156.096 175.82 156.311 176.604 156.74C177.388 157.169 177.995 157.748 178.424 158.476V156.292H183.912V172H178.424V169.816C177.995 170.544 177.379 171.123 176.576 171.552C175.792 171.981 174.868 172.196 173.804 172.196C172.554 172.196 171.415 171.869 170.388 171.216C169.38 170.563 168.578 169.629 167.98 168.416C167.402 167.184 167.112 165.756 167.112 164.132ZM178.424 164.132C178.424 163.124 178.144 162.331 177.584 161.752C177.043 161.173 176.371 160.884 175.568 160.884C174.747 160.884 174.066 161.173 173.524 161.752C172.983 162.312 172.712 163.105 172.712 164.132C172.712 165.14 172.983 165.943 173.524 166.54C174.066 167.119 174.747 167.408 175.568 167.408C176.371 167.408 177.043 167.119 177.584 166.54C178.144 165.961 178.424 165.159 178.424 164.132ZM207.634 156.152C209.612 156.152 211.162 156.749 212.282 157.944C213.42 159.139 213.99 160.772 213.99 162.844V172H208.502V163.572C208.502 162.732 208.268 162.079 207.802 161.612C207.335 161.145 206.7 160.912 205.898 160.912C205.095 160.912 204.46 161.145 203.994 161.612C203.527 162.079 203.294 162.732 203.294 163.572V172H197.806V163.572C197.806 162.732 197.572 162.079 197.106 161.612C196.658 161.145 196.032 160.912 195.23 160.912C194.408 160.912 193.764 161.145 193.298 161.612C192.831 162.079 192.598 162.732 192.598 163.572V172H187.11V156.292H192.598V158.364C193.083 157.692 193.708 157.16 194.474 156.768C195.258 156.357 196.154 156.152 197.162 156.152C198.319 156.152 199.346 156.404 200.242 156.908C201.156 157.412 201.875 158.121 202.398 159.036C202.958 158.177 203.695 157.487 204.61 156.964C205.524 156.423 206.532 156.152 207.634 156.152ZM216.17 164.132C216.17 162.508 216.46 161.089 217.038 159.876C217.636 158.663 218.438 157.729 219.446 157.076C220.473 156.423 221.612 156.096 222.862 156.096C223.945 156.096 224.878 156.311 225.662 156.74C226.446 157.169 227.053 157.748 227.482 158.476V156.292H232.97V172H227.482V169.816C227.053 170.544 226.437 171.123 225.634 171.552C224.85 171.981 223.926 172.196 222.862 172.196C221.612 172.196 220.473 171.869 219.446 171.216C218.438 170.563 217.636 169.629 217.038 168.416C216.46 167.184 216.17 165.756 216.17 164.132ZM227.482 164.132C227.482 163.124 227.202 162.331 226.642 161.752C226.101 161.173 225.429 160.884 224.626 160.884C223.805 160.884 223.124 161.173 222.582 161.752C222.041 162.312 221.77 163.105 221.77 164.132C221.77 165.14 222.041 165.943 222.582 166.54C223.124 167.119 223.805 167.408 224.626 167.408C225.429 167.408 226.101 167.119 226.642 166.54C227.202 165.961 227.482 165.159 227.482 164.132ZM245.436 167.324V172H243.056C239.042 172 237.036 170.012 237.036 166.036V160.856H235.104V156.292H237.036V152.484H242.552V156.292H245.408V160.856H242.552V166.12C242.552 166.549 242.645 166.857 242.832 167.044C243.037 167.231 243.373 167.324 243.84 167.324H245.436ZM261.264 152.26C263.336 152.26 265.147 152.68 266.696 153.52C268.264 154.341 269.468 155.499 270.308 156.992C271.148 158.485 271.568 160.193 271.568 162.116C271.568 164.02 271.139 165.719 270.28 167.212C269.44 168.705 268.236 169.881 266.668 170.74C265.119 171.58 263.318 172 261.264 172H253.452V152.26H261.264ZM260.844 167.156C262.45 167.156 263.71 166.717 264.624 165.84C265.539 164.963 265.996 163.721 265.996 162.116C265.996 160.492 265.539 159.241 264.624 158.364C263.71 157.468 262.45 157.02 260.844 157.02H258.94V167.156H260.844ZM273.216 164.132C273.216 162.508 273.505 161.089 274.084 159.876C274.681 158.663 275.484 157.729 276.492 157.076C277.519 156.423 278.657 156.096 279.908 156.096C280.991 156.096 281.924 156.311 282.708 156.74C283.492 157.169 284.099 157.748 284.528 158.476V156.292H290.016V172H284.528V169.816C284.099 170.544 283.483 171.123 282.68 171.552C281.896 171.981 280.972 172.196 279.908 172.196C278.657 172.196 277.519 171.869 276.492 171.216C275.484 170.563 274.681 169.629 274.084 168.416C273.505 167.184 273.216 165.756 273.216 164.132ZM284.528 164.132C284.528 163.124 284.248 162.331 283.688 161.752C283.147 161.173 282.475 160.884 281.672 160.884C280.851 160.884 280.169 161.173 279.628 161.752C279.087 162.312 278.816 163.105 278.816 164.132C278.816 165.14 279.087 165.943 279.628 166.54C280.169 167.119 280.851 167.408 281.672 167.408C282.475 167.408 283.147 167.119 283.688 166.54C284.248 165.961 284.528 165.159 284.528 164.132ZM302.481 167.324V172H300.101C296.088 172 294.081 170.012 294.081 166.036V160.856H292.149V156.292H294.081V152.484H299.597V156.292H302.453V160.856H299.597V166.12C299.597 166.549 299.691 166.857 299.877 167.044C300.083 167.231 300.419 167.324 300.885 167.324H302.481ZM304.172 164.132C304.172 162.508 304.462 161.089 305.04 159.876C305.638 158.663 306.44 157.729 307.448 157.076C308.475 156.423 309.614 156.096 310.864 156.096C311.947 156.096 312.88 156.311 313.664 156.74C314.448 157.169 315.055 157.748 315.484 158.476V156.292H320.972V172H315.484V169.816C315.055 170.544 314.439 171.123 313.636 171.552C312.852 171.981 311.928 172.196 310.864 172.196C309.614 172.196 308.475 171.869 307.448 171.216C306.44 170.563 305.638 169.629 305.04 168.416C304.462 167.184 304.172 165.756 304.172 164.132ZM315.484 164.132C315.484 163.124 315.204 162.331 314.644 161.752C314.103 161.173 313.431 160.884 312.628 160.884C311.807 160.884 311.126 161.173 310.584 161.752C310.043 162.312 309.772 163.105 309.772 164.132C309.772 165.14 310.043 165.943 310.584 166.54C311.126 167.119 311.807 167.408 312.628 167.408C313.431 167.408 314.103 167.119 314.644 166.54C315.204 165.961 315.484 165.159 315.484 164.132ZM334.446 156.152C336.256 156.152 337.694 156.759 338.758 157.972C339.822 159.167 340.354 160.791 340.354 162.844V172H334.866V163.572C334.866 162.676 334.632 161.976 334.166 161.472C333.699 160.949 333.074 160.688 332.29 160.688C331.468 160.688 330.824 160.949 330.358 161.472C329.891 161.976 329.658 162.676 329.658 163.572V172H324.17V156.292H329.658V158.532C330.143 157.823 330.796 157.253 331.618 156.824C332.439 156.376 333.382 156.152 334.446 156.152ZM349.231 156.096C350.295 156.096 351.219 156.311 352.003 156.74C352.806 157.169 353.422 157.748 353.851 158.476V156.292H359.339V171.832C359.339 173.307 359.059 174.632 358.499 175.808C357.939 177.003 357.062 177.955 355.867 178.664C354.691 179.373 353.198 179.728 351.387 179.728C348.96 179.728 347.019 179.159 345.563 178.02C344.107 176.881 343.276 175.332 343.071 173.372H348.475C348.587 173.876 348.867 174.268 349.315 174.548C349.763 174.828 350.342 174.968 351.051 174.968C352.918 174.968 353.851 173.923 353.851 171.832V169.816C353.422 170.544 352.806 171.123 352.003 171.552C351.219 171.981 350.295 172.196 349.231 172.196C347.98 172.196 346.842 171.869 345.815 171.216C344.807 170.563 344.004 169.629 343.407 168.416C342.828 167.184 342.539 165.756 342.539 164.132C342.539 162.508 342.828 161.089 343.407 159.876C344.004 158.663 344.807 157.729 345.815 157.076C346.842 156.423 347.98 156.096 349.231 156.096ZM353.851 164.132C353.851 163.124 353.571 162.331 353.011 161.752C352.47 161.173 351.798 160.884 350.995 160.884C350.174 160.884 349.492 161.173 348.951 161.752C348.41 162.312 348.139 163.105 348.139 164.132C348.139 165.14 348.41 165.943 348.951 166.54C349.492 167.119 350.174 167.408 350.995 167.408C351.798 167.408 352.47 167.119 353.011 166.54C353.571 165.961 353.851 165.159 353.851 164.132ZM367.07 164.132C367.07 162.508 367.359 161.089 367.938 159.876C368.535 158.663 369.347 157.729 370.374 157.076C371.4 156.423 372.539 156.096 373.79 156.096C374.798 156.096 375.694 156.311 376.478 156.74C377.28 157.151 377.906 157.72 378.354 158.448V151.28H383.87V172H378.354V169.816C377.924 170.544 377.318 171.123 376.534 171.552C375.75 171.981 374.826 172.196 373.762 172.196C372.511 172.196 371.372 171.869 370.346 171.216C369.338 170.563 368.535 169.629 367.938 168.416C367.359 167.184 367.07 165.756 367.07 164.132ZM378.382 164.132C378.382 163.124 378.102 162.331 377.542 161.752C377 161.173 376.328 160.884 375.526 160.884C374.704 160.884 374.023 161.173 373.482 161.752C372.94 162.312 372.67 163.105 372.67 164.132C372.67 165.14 372.94 165.943 373.482 166.54C374.023 167.119 374.704 167.408 375.526 167.408C376.328 167.408 377 167.119 377.542 166.54C378.102 165.961 378.382 165.159 378.382 164.132ZM389.839 154.836C388.868 154.836 388.084 154.575 387.487 154.052C386.908 153.511 386.619 152.839 386.619 152.036C386.619 151.215 386.908 150.533 387.487 149.992C388.084 149.451 388.868 149.18 389.839 149.18C390.791 149.18 391.556 149.451 392.135 149.992C392.732 150.533 393.031 151.215 393.031 152.036C393.031 152.839 392.732 153.511 392.135 154.052C391.556 154.575 390.791 154.836 389.839 154.836ZM392.555 156.292V172H387.067V156.292H392.555ZM406.668 156.656V159.876H412.968V164.048H406.668V167.604H413.808V172H401.18V152.26H413.808V156.656H406.668ZM415.693 164.132C415.693 162.508 415.983 161.089 416.561 159.876C417.159 158.663 417.971 157.729 418.997 157.076C420.024 156.423 421.163 156.096 422.413 156.096C423.421 156.096 424.317 156.311 425.101 156.74C425.904 157.151 426.529 157.72 426.977 158.448V151.28H432.493V172H426.977V169.816C426.548 170.544 425.941 171.123 425.157 171.552C424.373 171.981 423.449 172.196 422.385 172.196C421.135 172.196 419.996 171.869 418.969 171.216C417.961 170.563 417.159 169.629 416.561 168.416C415.983 167.184 415.693 165.756 415.693 164.132ZM427.005 164.132C427.005 163.124 426.725 162.331 426.165 161.752C425.624 161.173 424.952 160.884 424.149 160.884C423.328 160.884 422.647 161.173 422.105 161.752C421.564 162.312 421.293 163.105 421.293 164.132C421.293 165.14 421.564 165.943 422.105 166.54C422.647 167.119 423.328 167.408 424.149 167.408C424.952 167.408 425.624 167.119 426.165 166.54C426.725 165.961 427.005 165.159 427.005 164.132ZM451.763 156.292V172H446.247V169.76C445.78 170.469 445.136 171.048 444.315 171.496C443.493 171.925 442.551 172.14 441.487 172.14C439.657 172.14 438.211 171.543 437.147 170.348C436.101 169.135 435.579 167.492 435.579 165.42V156.292H441.039V164.72C441.039 165.616 441.272 166.325 441.739 166.848C442.224 167.352 442.859 167.604 443.643 167.604C444.445 167.604 445.08 167.352 445.547 166.848C446.013 166.325 446.247 165.616 446.247 164.72V156.292H451.763ZM462.404 172.196C460.108 172.196 458.223 171.655 456.748 170.572C455.273 169.471 454.48 167.903 454.368 165.868H460.22C460.276 166.559 460.481 167.063 460.836 167.38C461.191 167.697 461.648 167.856 462.208 167.856C462.712 167.856 463.123 167.735 463.44 167.492C463.776 167.231 463.944 166.876 463.944 166.428C463.944 165.849 463.673 165.401 463.132 165.084C462.591 164.767 461.713 164.412 460.5 164.02C459.212 163.591 458.167 163.18 457.364 162.788C456.58 162.377 455.889 161.789 455.292 161.024C454.713 160.24 454.424 159.223 454.424 157.972C454.424 156.703 454.741 155.62 455.376 154.724C456.011 153.809 456.888 153.119 458.008 152.652C459.128 152.185 460.397 151.952 461.816 151.952C464.112 151.952 465.941 152.493 467.304 153.576C468.685 154.64 469.423 156.143 469.516 158.084H463.552C463.533 157.487 463.347 157.039 462.992 156.74C462.656 156.441 462.217 156.292 461.676 156.292C461.265 156.292 460.929 156.413 460.668 156.656C460.407 156.899 460.276 157.244 460.276 157.692C460.276 158.065 460.416 158.392 460.696 158.672C460.995 158.933 461.359 159.167 461.788 159.372C462.217 159.559 462.852 159.801 463.692 160.1C464.943 160.529 465.969 160.959 466.772 161.388C467.593 161.799 468.293 162.387 468.872 163.152C469.469 163.899 469.768 164.851 469.768 166.008C469.768 167.184 469.469 168.239 468.872 169.172C468.293 170.105 467.444 170.843 466.324 171.384C465.223 171.925 463.916 172.196 462.404 172.196ZM471.493 164.132C471.493 162.508 471.829 161.089 472.501 159.876C473.173 158.663 474.107 157.729 475.301 157.076C476.515 156.423 477.896 156.096 479.445 156.096C481.443 156.096 483.123 156.647 484.485 157.748C485.848 158.831 486.725 160.352 487.117 162.312H481.293C480.957 161.285 480.304 160.772 479.333 160.772C478.643 160.772 478.092 161.061 477.681 161.64C477.289 162.2 477.093 163.031 477.093 164.132C477.093 165.233 477.289 166.073 477.681 166.652C478.092 167.231 478.643 167.52 479.333 167.52C480.323 167.52 480.976 167.007 481.293 165.98H487.117C486.725 167.921 485.848 169.443 484.485 170.544C483.123 171.645 481.443 172.196 479.445 172.196C477.896 172.196 476.515 171.869 475.301 171.216C474.107 170.563 473.173 169.629 472.501 168.416C471.829 167.203 471.493 165.775 471.493 164.132ZM488.571 164.132C488.571 162.508 488.86 161.089 489.439 159.876C490.036 158.663 490.839 157.729 491.847 157.076C492.874 156.423 494.012 156.096 495.263 156.096C496.346 156.096 497.279 156.311 498.063 156.74C498.847 157.169 499.454 157.748 499.883 158.476V156.292H505.371V172H499.883V169.816C499.454 170.544 498.838 171.123 498.035 171.552C497.251 171.981 496.327 172.196 495.263 172.196C494.012 172.196 492.874 171.869 491.847 171.216C490.839 170.563 490.036 169.629 489.439 168.416C488.86 167.184 488.571 165.756 488.571 164.132ZM499.883 164.132C499.883 163.124 499.603 162.331 499.043 161.752C498.502 161.173 497.83 160.884 497.027 160.884C496.206 160.884 495.524 161.173 494.983 161.752C494.442 162.312 494.171 163.105 494.171 164.132C494.171 165.14 494.442 165.943 494.983 166.54C495.524 167.119 496.206 167.408 497.027 167.408C497.83 167.408 498.502 167.119 499.043 166.54C499.603 165.961 499.883 165.159 499.883 164.132ZM518.844 156.152C520.655 156.152 522.092 156.759 523.156 157.972C524.22 159.167 524.752 160.791 524.752 162.844V172H519.264V163.572C519.264 162.676 519.031 161.976 518.564 161.472C518.098 160.949 517.472 160.688 516.688 160.688C515.867 160.688 515.223 160.949 514.756 161.472C514.29 161.976 514.056 162.676 514.056 163.572V172H508.568V156.292H514.056V158.532C514.542 157.823 515.195 157.253 516.016 156.824C516.838 156.376 517.78 156.152 518.844 156.152ZM132.38 192.26C134.452 192.26 136.263 192.68 137.812 193.52C139.38 194.341 140.584 195.499 141.424 196.992C142.264 198.485 142.684 200.193 142.684 202.116C142.684 204.02 142.255 205.719 141.396 207.212C140.556 208.705 139.352 209.881 137.784 210.74C136.235 211.58 134.433 212 132.38 212H124.568V192.26H132.38ZM131.96 207.156C133.565 207.156 134.825 206.717 135.74 205.84C136.655 204.963 137.112 203.721 137.112 202.116C137.112 200.492 136.655 199.241 135.74 198.364C134.825 197.468 133.565 197.02 131.96 197.02H130.056V207.156H131.96ZM144.332 204.132C144.332 202.508 144.621 201.089 145.2 199.876C145.797 198.663 146.6 197.729 147.608 197.076C148.635 196.423 149.773 196.096 151.024 196.096C152.107 196.096 153.04 196.311 153.824 196.74C154.608 197.169 155.215 197.748 155.644 198.476V196.292H161.132V212H155.644V209.816C155.215 210.544 154.599 211.123 153.796 211.552C153.012 211.981 152.088 212.196 151.024 212.196C149.773 212.196 148.635 211.869 147.608 211.216C146.6 210.563 145.797 209.629 145.2 208.416C144.621 207.184 144.332 205.756 144.332 204.132ZM155.644 204.132C155.644 203.124 155.364 202.331 154.804 201.752C154.263 201.173 153.591 200.884 152.788 200.884C151.967 200.884 151.285 201.173 150.744 201.752C150.203 202.312 149.932 203.105 149.932 204.132C149.932 205.14 150.203 205.943 150.744 206.54C151.285 207.119 151.967 207.408 152.788 207.408C153.591 207.408 154.263 207.119 154.804 206.54C155.364 205.961 155.644 205.159 155.644 204.132ZM172.813 200.856H170.349V212H164.833V200.856H163.125V196.292H164.833V196.152C164.833 194.136 165.421 192.596 166.597 191.532C167.792 190.449 169.5 189.908 171.721 189.908C172.169 189.908 172.514 189.917 172.757 189.936V194.612C172.608 194.593 172.402 194.584 172.141 194.584C171.544 194.584 171.105 194.724 170.825 195.004C170.545 195.265 170.386 195.695 170.349 196.292H172.813V200.856ZM184.112 207.324V212H181.732C177.719 212 175.712 210.012 175.712 206.036V200.856H173.78V196.292H175.712V192.484H181.228V196.292H184.084V200.856H181.228V206.12C181.228 206.549 181.322 206.857 181.508 207.044C181.714 207.231 182.05 207.324 182.516 207.324H184.112ZM185.804 204.132C185.804 202.508 186.093 201.089 186.672 199.876C187.269 198.663 188.072 197.729 189.08 197.076C190.106 196.423 191.245 196.096 192.496 196.096C193.578 196.096 194.512 196.311 195.296 196.74C196.08 197.169 196.686 197.748 197.116 198.476V196.292H202.604V212H197.116V209.816C196.686 210.544 196.07 211.123 195.268 211.552C194.484 211.981 193.56 212.196 192.496 212.196C191.245 212.196 190.106 211.869 189.08 211.216C188.072 210.563 187.269 209.629 186.672 208.416C186.093 207.184 185.804 205.756 185.804 204.132ZM197.116 204.132C197.116 203.124 196.836 202.331 196.276 201.752C195.734 201.173 195.062 200.884 194.26 200.884C193.438 200.884 192.757 201.173 192.216 201.752C191.674 202.312 191.404 203.105 191.404 204.132C191.404 205.14 191.674 205.943 192.216 206.54C192.757 207.119 193.438 207.408 194.26 207.408C195.062 207.408 195.734 207.119 196.276 206.54C196.836 205.961 197.116 205.159 197.116 204.132ZM211.289 199.064C211.905 198.168 212.651 197.459 213.529 196.936C214.406 196.413 215.349 196.152 216.357 196.152V202.004H214.817C213.622 202.004 212.735 202.237 212.157 202.704C211.578 203.171 211.289 203.983 211.289 205.14V212H205.801V196.292H211.289V199.064ZM231.272 212.196C228.976 212.196 227.09 211.655 225.616 210.572C224.141 209.471 223.348 207.903 223.236 205.868H229.088C229.144 206.559 229.349 207.063 229.704 207.38C230.058 207.697 230.516 207.856 231.076 207.856C231.58 207.856 231.99 207.735 232.308 207.492C232.644 207.231 232.812 206.876 232.812 206.428C232.812 205.849 232.541 205.401 232 205.084C231.458 204.767 230.581 204.412 229.368 204.02C228.08 203.591 227.034 203.18 226.232 202.788C225.448 202.377 224.757 201.789 224.16 201.024C223.581 200.24 223.292 199.223 223.292 197.972C223.292 196.703 223.609 195.62 224.244 194.724C224.878 193.809 225.756 193.119 226.876 192.652C227.996 192.185 229.265 191.952 230.684 191.952C232.98 191.952 234.809 192.493 236.172 193.576C237.553 194.64 238.29 196.143 238.384 198.084H232.42C232.401 197.487 232.214 197.039 231.86 196.74C231.524 196.441 231.085 196.292 230.544 196.292C230.133 196.292 229.797 196.413 229.536 196.656C229.274 196.899 229.144 197.244 229.144 197.692C229.144 198.065 229.284 198.392 229.564 198.672C229.862 198.933 230.226 199.167 230.656 199.372C231.085 199.559 231.72 199.801 232.56 200.1C233.81 200.529 234.837 200.959 235.64 201.388C236.461 201.799 237.161 202.387 237.74 203.152C238.337 203.899 238.636 204.851 238.636 206.008C238.636 207.184 238.337 208.239 237.74 209.172C237.161 210.105 236.312 210.843 235.192 211.384C234.09 211.925 232.784 212.196 231.272 212.196ZM256.265 203.964C256.265 204.393 256.237 204.823 256.181 205.252H245.793C245.849 206.111 246.082 206.755 246.493 207.184C246.922 207.595 247.464 207.8 248.117 207.8C249.032 207.8 249.685 207.389 250.077 206.568H255.929C255.686 207.651 255.21 208.621 254.501 209.48C253.81 210.32 252.933 210.983 251.869 211.468C250.805 211.953 249.629 212.196 248.341 212.196C246.792 212.196 245.41 211.869 244.197 211.216C243.002 210.563 242.06 209.629 241.369 208.416C240.697 207.203 240.361 205.775 240.361 204.132C240.361 202.489 240.697 201.071 241.369 199.876C242.041 198.663 242.974 197.729 244.169 197.076C245.382 196.423 246.773 196.096 248.341 196.096C249.89 196.096 251.262 196.413 252.457 197.048C253.652 197.683 254.585 198.597 255.257 199.792C255.929 200.968 256.265 202.359 256.265 203.964ZM250.665 202.592C250.665 201.92 250.441 201.397 249.993 201.024C249.545 200.632 248.985 200.436 248.313 200.436C247.641 200.436 247.09 200.623 246.661 200.996C246.232 201.351 245.952 201.883 245.821 202.592H250.665ZM268.409 212L264.069 205.56V212H258.581V191.28H264.069V202.452L268.409 196.292H274.989L268.801 204.188L275.101 212H268.409ZM275.884 204.132C275.884 202.508 276.173 201.089 276.752 199.876C277.349 198.663 278.152 197.729 279.16 197.076C280.186 196.423 281.325 196.096 282.576 196.096C283.658 196.096 284.592 196.311 285.376 196.74C286.16 197.169 286.766 197.748 287.196 198.476V196.292H292.684V212H287.196V209.816C286.766 210.544 286.15 211.123 285.348 211.552C284.564 211.981 283.64 212.196 282.576 212.196C281.325 212.196 280.186 211.869 279.16 211.216C278.152 210.563 277.349 209.629 276.752 208.416C276.173 207.184 275.884 205.756 275.884 204.132ZM287.196 204.132C287.196 203.124 286.916 202.331 286.356 201.752C285.814 201.173 285.142 200.884 284.34 200.884C283.518 200.884 282.837 201.173 282.296 201.752C281.754 202.312 281.484 203.105 281.484 204.132C281.484 205.14 281.754 205.943 282.296 206.54C282.837 207.119 283.518 207.408 284.34 207.408C285.142 207.408 285.814 207.119 286.356 206.54C286.916 205.961 287.196 205.159 287.196 204.132ZM301.369 199.064C301.985 198.168 302.732 197.459 303.609 196.936C304.486 196.413 305.429 196.152 306.437 196.152V202.004H304.897C303.702 202.004 302.816 202.237 302.237 202.704C301.658 203.171 301.369 203.983 301.369 205.14V212H295.881V196.292H301.369V199.064ZM307.578 204.132C307.578 202.508 307.868 201.089 308.446 199.876C309.044 198.663 309.846 197.729 310.854 197.076C311.881 196.423 313.02 196.096 314.27 196.096C315.353 196.096 316.286 196.311 317.07 196.74C317.854 197.169 318.461 197.748 318.89 198.476V196.292H324.378V212H318.89V209.816C318.461 210.544 317.845 211.123 317.042 211.552C316.258 211.981 315.334 212.196 314.27 212.196C313.02 212.196 311.881 211.869 310.854 211.216C309.846 210.563 309.044 209.629 308.446 208.416C307.868 207.184 307.578 205.756 307.578 204.132ZM318.89 204.132C318.89 203.124 318.61 202.331 318.05 201.752C317.509 201.173 316.837 200.884 316.034 200.884C315.213 200.884 314.532 201.173 313.99 201.752C313.449 202.312 313.178 203.105 313.178 204.132C313.178 205.14 313.449 205.943 313.99 206.54C314.532 207.119 315.213 207.408 316.034 207.408C316.837 207.408 317.509 207.119 318.05 206.54C318.61 205.961 318.89 205.159 318.89 204.132ZM337.852 196.152C339.662 196.152 341.1 196.759 342.164 197.972C343.228 199.167 343.76 200.791 343.76 202.844V212H338.272V203.572C338.272 202.676 338.038 201.976 337.572 201.472C337.105 200.949 336.48 200.688 335.696 200.688C334.874 200.688 334.23 200.949 333.764 201.472C333.297 201.976 333.064 202.676 333.064 203.572V212H327.576V196.292H333.064V198.532C333.549 197.823 334.202 197.253 335.024 196.824C335.845 196.376 336.788 196.152 337.852 196.152ZM352.637 196.096C353.701 196.096 354.625 196.311 355.409 196.74C356.212 197.169 356.828 197.748 357.257 198.476V196.292H362.745V211.832C362.745 213.307 362.465 214.632 361.905 215.808C361.345 217.003 360.468 217.955 359.273 218.664C358.097 219.373 356.604 219.728 354.793 219.728C352.366 219.728 350.425 219.159 348.969 218.02C347.513 216.881 346.682 215.332 346.477 213.372H351.881C351.993 213.876 352.273 214.268 352.721 214.548C353.169 214.828 353.748 214.968 354.457 214.968C356.324 214.968 357.257 213.923 357.257 211.832V209.816C356.828 210.544 356.212 211.123 355.409 211.552C354.625 211.981 353.701 212.196 352.637 212.196C351.386 212.196 350.248 211.869 349.221 211.216C348.213 210.563 347.41 209.629 346.813 208.416C346.234 207.184 345.945 205.756 345.945 204.132C345.945 202.508 346.234 201.089 346.813 199.876C347.41 198.663 348.213 197.729 349.221 197.076C350.248 196.423 351.386 196.096 352.637 196.096ZM357.257 204.132C357.257 203.124 356.977 202.331 356.417 201.752C355.876 201.173 355.204 200.884 354.401 200.884C353.58 200.884 352.898 201.173 352.357 201.752C351.816 202.312 351.545 203.105 351.545 204.132C351.545 205.14 351.816 205.943 352.357 206.54C352.898 207.119 353.58 207.408 354.401 207.408C355.204 207.408 355.876 207.119 356.417 206.54C356.977 205.961 357.257 205.159 357.257 204.132ZM373.278 191.252L372.634 204.608H367.958L367.314 191.252H373.278ZM370.31 212.224C369.34 212.224 368.556 211.963 367.958 211.44C367.38 210.899 367.09 210.217 367.09 209.396C367.09 208.575 367.38 207.893 367.958 207.352C368.556 206.811 369.34 206.54 370.31 206.54C371.262 206.54 372.028 206.811 372.606 207.352C373.204 207.893 373.502 208.575 373.502 209.396C373.502 210.199 373.204 210.871 372.606 211.412C372.028 211.953 371.262 212.224 370.31 212.224Z" fill="#F5F7FA"/>
<g clip-path="url(#clip0_580_3782)">
<path d="M435.676 336.426C435.61 336.438 435.511 336.456 435.391 336.478C433.05 336.899 418.892 339.275 404.618 333.362C398.571 330.857 400.634 330.233 387.167 321.524C371.378 311.313 367.326 311.385 366.15 306.624C363.802 297.117 376.339 282.172 384.636 283.156C386.821 283.415 389.161 284.832 392.799 283.871C393.599 283.66 397.099 282.737 398.805 279.586C400.327 276.776 399.038 274.749 399.65 272.444C401.257 266.393 414.65 263.374 426.392 265.507C433.146 266.734 438.399 270.084 448.629 276.734C466.435 288.308 475.338 294.095 477.339 302.961C479.235 311.364 474.683 314.985 477.994 323.981C481.076 332.357 485.972 331.798 487.657 338.574C490.368 349.477 480.306 361.444 476.114 366.429C471.518 371.895 467.123 374.895 461.288 378.877C453.964 383.875 450.302 386.375 445.899 386.12C437.917 385.659 414.197 387.229 413.888 380.045C413.772 377.353 385.004 379.557 399.169 350.573C400.907 347.018 434.944 350.815 435.393 348.773" fill="#2F2E41"/>
<path d="M449.452 354.973L473.918 394.661L403.688 410.107L408.161 360.419L449.452 354.973Z" fill="#FFB6B6"/>
<path opacity="0.1" d="M449.452 354.973L473.918 394.661L403.688 410.107L408.161 360.419L449.452 354.973Z" fill="black"/>
<path d="M398.427 384.364L474.175 380.932L507.841 400.954L506.263 529.666L541.506 602.316L363.709 565.705L377.386 510.788L371.074 395.233L398.427 384.364Z" fill="#FF6A3B"/>
<path d="M137.04 634.41C134.622 630.265 134.336 625.143 136.276 620.709L165.106 554.834C167.258 549.917 171.883 546.741 176.89 546.741H541.034C545.901 546.741 550.33 549.653 552.59 554.34L583.492 618.4C585.628 622.828 585.488 628.029 583.116 632.313C580.745 636.597 576.585 639.166 571.987 639.185L148.111 641H148.058C143.565 641 139.448 638.54 137.04 634.41Z" fill="white"/>
<path d="M137.04 634.41C134.622 630.265 134.336 625.143 136.276 620.709L165.106 554.834C167.258 549.917 171.883 546.741 176.89 546.741H541.034C545.901 546.741 550.33 549.653 552.59 554.34L583.492 618.4C585.628 622.828 585.488 628.029 583.116 632.313C580.745 636.597 576.585 639.166 571.987 639.185L148.111 641H148.058C143.565 641 139.448 638.54 137.04 634.41ZM176.89 548.23C172.409 548.23 168.269 551.074 166.343 555.474L137.513 621.349C135.777 625.317 136.032 629.901 138.197 633.612C140.353 637.308 144.036 639.51 148.058 639.51H148.106L571.982 637.696C576.097 637.678 579.82 635.378 581.943 631.544C584.065 627.71 584.191 623.055 582.279 619.092L551.378 555.032C549.354 550.837 545.391 548.23 541.034 548.23H176.89Z" fill="#3F3D56"/>
<path d="M507.131 615.816L356.859 604.581C354.64 604.415 352.871 602.788 352.351 600.437C351.831 598.086 352.728 595.762 354.635 594.518L387.864 572.835C388.708 572.285 389.676 572.017 390.657 572.068L520.641 578.494C522.36 578.578 523.895 579.599 524.747 581.224C525.6 582.849 525.627 584.805 524.82 586.457L511.878 612.95C511.01 614.728 509.307 615.829 507.473 615.829C507.36 615.829 507.246 615.825 507.131 615.816Z" fill="#3F3D56"/>
<path d="M355.556 598.026L505.211 609.181L517.046 581.436L388.724 575.964L355.556 598.026Z" fill="white"/>
<path d="M429.2 368.342C454.036 368.342 474.171 346.446 474.171 319.436C474.171 292.426 454.036 270.53 429.2 270.53C404.363 270.53 384.229 292.426 384.229 319.436C384.229 346.446 404.363 368.342 429.2 368.342Z" fill="#FFB6B6"/>
<path d="M443.685 322.601C443.619 322.613 443.52 322.632 443.4 322.653C441.059 323.075 426.901 325.45 412.627 319.537C406.58 317.032 408.643 316.408 395.176 307.699C379.387 297.488 375.335 297.56 374.159 292.799C371.811 283.292 384.348 268.348 392.645 269.332C394.83 269.591 397.17 271.007 400.809 270.047C401.608 269.836 405.108 268.912 406.814 265.761C408.336 262.951 407.047 260.924 407.659 258.619C409.266 252.569 422.659 249.549 434.401 251.683C441.155 252.91 446.408 256.259 456.638 262.909C474.444 274.483 483.347 280.27 485.348 289.136C487.244 297.54 482.692 301.161 486.003 310.156C489.085 318.532 493.981 317.973 495.666 324.749C498.377 335.653 488.315 347.62 484.123 352.605C479.527 358.07 475.132 361.07 469.297 365.052C461.973 370.051 458.311 372.55 453.908 372.295C445.926 371.834 437.986 363.968 437.677 356.784C437.561 354.092 438.594 353.284 441.149 344.029C442.214 340.173 442.953 336.99 443.402 334.948" fill="#2F2E41"/>
<path d="M474.508 584.627C477.401 584.751 479.603 587.57 479.762 590.625C479.928 593.795 477.901 596.715 475.466 598.225C472.614 599.993 469.053 600.277 465.841 599.972C462.952 599.698 459.809 598.721 457.949 596.127C456.385 593.944 455.81 590.646 457.14 588.168C458.459 585.711 461.265 585.032 463.611 586.018C466.095 587.062 467.656 589.518 467.672 592.42C467.689 595.638 465.98 598.611 463.583 600.39C460.997 602.308 457.742 602.925 454.664 602.918C451.31 602.909 447.97 602.144 444.885 600.722C441.994 599.39 439.106 597.47 437.039 594.86C435.101 592.413 433.941 589.019 435.016 585.845C435.899 583.243 438.128 581.648 440.68 581.868C443.017 582.07 445.381 583.544 446.418 585.893C447.588 588.542 447.063 591.721 445.574 594.09C443.854 596.825 441.135 598.362 438.117 598.584C434.904 598.82 431.723 597.579 429.08 595.659C426.633 593.882 424.482 591.608 421.855 590.129C420.59 589.418 419.214 588.965 417.783 588.967C415.96 588.97 414.207 589.621 412.435 589.998C410.932 590.319 409.383 590.505 407.901 589.983C406.632 589.536 405.445 588.717 404.645 587.543C403.889 586.432 403.624 585.04 404.052 583.721C404.388 582.687 405.913 583.132 405.574 584.177C404.791 586.589 407.477 588.361 409.358 588.583C410.784 588.751 412.256 588.302 413.633 587.952C415.067 587.587 416.534 587.214 418.017 587.254C423.272 587.394 426.745 592.279 430.982 594.929C435.436 597.715 441.959 597.909 444.687 592.373C445.677 590.362 445.882 587.689 444.521 585.81C443.387 584.245 441.373 583.308 439.547 583.612C437.255 583.993 436.113 586.367 436.196 588.728C436.298 591.617 438.15 593.964 440.125 595.695C444.521 599.547 450.35 601.509 455.972 601.164C458.61 601.003 461.414 600.256 463.463 598.346C465.234 596.695 466.442 594.012 466.017 591.441C465.649 589.216 463.933 587.528 461.86 587.304C459.739 587.075 458.082 588.713 457.987 591.016C457.881 593.608 459.296 595.771 461.348 596.951C463.672 598.288 466.488 598.453 469.063 598.308C471.797 598.153 474.647 597.369 476.56 595.105C478.192 593.174 478.811 590.308 477.307 588.073C476.643 587.087 475.645 586.392 474.508 586.343C473.496 586.3 473.491 584.583 474.508 584.627Z" fill="#17B8A6"/>
<path d="M402.585 582.789L403.39 577.378L448.036 484.58C448.775 483.043 450.527 482.447 451.941 483.251C453.354 484.055 453.902 485.961 453.163 487.498L408.537 580.254L404.888 584.099C404.457 584.551 403.834 584.648 403.303 584.346C402.772 584.044 402.49 583.432 402.585 582.789Z" fill="#3F3D56"/>
<path d="M433.018 523.749C438.055 524.78 442.791 527.108 446.831 530.538L447.059 530.592L447.105 530.345L495.763 538.633L492.238 468.25L529.115 446.285L520.399 565.257C518.511 572.855 511.26 577.292 504.308 575.104L442.368 555.729L442.523 554.9L442.306 554.836C437.356 556.288 432.158 556.43 427.148 555.248C414.577 552.482 405.7 543.186 407.321 534.487C408.941 525.787 420.443 520.979 433.018 523.749Z" fill="#FFB6B6"/>
<path d="M466.285 413.539L507.841 400.954C507.841 400.954 529.671 418.401 532.301 437.279C532.614 439.524 533.482 544.108 532.564 546.827C525.767 566.974 488.378 534.814 488.378 534.814L466.285 413.539Z" fill="#FF6A3B"/>
<path d="M286.034 601.509L281.726 597.493C281.084 596.895 280.304 596.499 279.47 596.348L183.48 578.949C181.289 578.552 179.67 576.831 179.256 574.458C178.841 572.085 179.767 569.839 181.672 568.596L215.917 546.251C217.061 545.504 218.408 545.269 219.711 545.589L341.42 575.492C343.786 576.073 345.365 578.153 345.443 580.789C345.52 583.426 344.067 585.611 341.739 586.356L290.851 602.632C290.368 602.787 289.876 602.863 289.387 602.863C288.173 602.863 286.984 602.395 286.034 601.509Z" fill="#3F3D56"/>
<path d="M239.807 471.745C244.565 473.817 248.798 477.098 252.151 481.314L252.364 481.414L252.453 481.182L298.715 499.558L348.111 412.582L375.418 430.987L318.145 530.864C314.941 537.921 307.037 540.748 300.607 537.138L243.288 505.089L243.587 504.308L243.386 504.2C238.271 504.582 233.146 503.627 228.44 501.413C216.6 496.052 209.546 485.063 212.685 476.869C215.823 468.676 227.963 466.381 239.807 471.745Z" fill="#FFB6B6"/>
<path d="M401.099 428.284L379.251 392.754C379.251 392.754 353.253 398.35 342.543 413.48C341.204 415.371 295.22 487.898 294.923 491.063C292.85 513.219 345.7 523.6 345.7 523.6L401.099 428.284Z" fill="#FF6A3B"/>
<path d="M283.656 602.577L173.621 586.037C169.938 585.484 166.899 582.615 165.877 578.727L140.605 482.535C139.749 479.275 140.388 475.899 142.359 473.272C144.33 470.645 147.242 469.288 150.352 469.546L261.212 478.783C265.223 479.117 268.59 482.188 269.591 486.425L294.037 589.919C294.817 593.222 294.037 596.713 291.95 599.258C290.153 601.449 287.605 602.673 284.948 602.673C284.52 602.673 284.088 602.641 283.656 602.577Z" fill="#3F3D56"/>
<path d="M259.129 405.549C259.773 406.318 262.107 405.534 266.748 403.935C270.277 402.72 270.82 402.278 271.156 401.961C272.336 400.846 272.645 399.673 273.814 394.494C275.912 385.198 275.976 384.275 277.054 382.302C277.425 381.623 278.362 380.002 278.133 379.802C277.898 379.595 276.884 381.283 275.01 381.921C273.184 382.543 272.361 381.547 270.802 381.801C268.786 382.128 267.588 384.211 265.708 387.581C264.043 390.566 263.834 391.767 261.499 397.697C260.838 399.377 260.306 400.677 259.897 401.705C255.314 406.356 250.769 411.069 246.265 415.823C246.352 415.678 246.434 415.542 246.505 415.424C248.5 412.093 248.771 410.307 248.742 408.969C248.695 406.801 247.743 405.15 245.841 401.936C243.977 398.786 242.21 396.708 240.082 394.228C237.293 390.977 235.898 389.352 235.343 389.459C231.376 390.222 230.315 419.599 235.306 424.852C234.606 425.397 234.025 425.967 233.606 426.528C229.333 421.369 222.013 415.605 213.905 414.895C208.906 414.457 206.147 416.163 205.289 416.749C201.324 419.458 198.967 424.878 200.151 426.408C201.255 427.834 204.444 424.592 210.693 424.77C215.054 424.895 218.46 426.615 220.483 427.637C224.725 429.779 226.277 431.886 229.404 433.329C227.938 434.643 226.776 436.283 226.047 437.812C225.794 438.096 225.543 438.38 225.29 438.664C222.063 436.686 218.428 435.235 214.619 434.902C209.62 434.464 206.861 436.17 206.003 436.756C203.331 438.581 201.394 441.636 200.775 443.903C200.37 443.992 199.995 444.093 199.652 444.202C198.44 441.225 194.835 438.085 191.483 436.503C185.713 433.779 178.218 434.501 177.416 437.091C177.391 437.174 177.384 437.255 177.373 437.337C178.005 431.787 178.864 426.276 179.937 420.805C179.973 420.961 180.019 421.119 180.08 421.285C181.504 425.176 185.353 428.91 190.6 430.847C194.717 432.368 196.442 431.58 196.88 431.359C197.299 431.149 199.106 430.305 199.549 428.627C200.37 425.517 195.342 416.323 192.17 419.407C181.978 429.315 180.58 421.292 180.112 419.942C180.978 415.616 181.976 411.316 183.094 407.04C183.113 407.066 183.13 407.092 183.15 407.118C185.377 410.055 189.662 412.124 194.697 412.215C198.649 412.287 199.941 411.084 200.264 410.761C200.572 410.452 201.921 409.176 201.876 407.59C201.792 404.65 196.982 402.255 193.133 401.84C189.587 401.457 185.768 402.638 183.874 404.133C184.755 400.931 185.702 397.743 186.713 394.568C189.301 395.718 192.967 395.563 196.569 393.812C199.539 392.369 200.116 390.982 200.254 390.619C200.385 390.272 200.982 388.809 200.44 387.644C199.435 385.483 195.082 385.52 192.079 386.668C190.842 387.141 189.667 387.869 188.66 388.691C190.45 383.488 192.403 378.323 194.502 373.195L192.398 372.623C189.716 379.173 187.378 385.809 185.368 392.518C185.118 390.551 184.492 388.454 183.667 386.751C181.243 381.744 176.065 377.987 174.313 379.206C173.963 379.45 173.816 379.847 173.682 380.319C172.609 384.124 173.417 389.381 176.244 394.211C178.463 398.002 180.172 398.535 180.617 398.655C180.993 398.757 182.444 399.192 183.637 398.631C182.835 401.62 182.093 404.622 181.417 407.638C180.603 405.44 178.999 403.099 177.303 401.48C173.392 397.747 167.321 396.253 166.086 398.072C165.839 398.436 165.832 398.864 165.863 399.358C166.112 403.328 168.596 407.923 172.825 411.334C176.144 414.011 177.915 413.843 178.37 413.782C178.638 413.747 179.448 413.659 180.229 413.275C179.504 416.939 178.871 420.62 178.323 424.317C177.228 420.182 173.508 415.022 169.996 416.664C163.766 419.576 156.442 415.102 155.636 417.059C155.426 417.568 155.6 418.093 155.8 418.662C157.415 423.246 161.873 427.687 167.994 430.045C172.798 431.896 174.831 431.001 175.348 430.751C175.69 430.585 176.82 430.071 177.661 429.119C177.056 433.869 176.593 438.644 176.266 443.44C174.967 440.355 171.308 437.106 167.883 435.43C161.874 432.491 154.016 433.135 153.143 435.836C152.968 436.376 153.106 436.897 153.312 437.482C154.969 442.186 159.544 446.744 165.827 449.165C170.759 451.065 172.845 450.147 173.375 449.889C173.762 449.701 175.131 449.08 176.003 447.899C175.891 450.116 175.805 452.337 175.75 454.562C175.735 455.195 175.726 455.829 175.714 456.463C175.644 456.587 175.582 456.715 175.541 456.848C175.372 457.391 175.487 457.914 175.685 458.486C175.68 458.888 175.678 459.29 175.675 459.693C174.576 458.609 173.265 456.98 171.687 454.658C170.264 452.563 168.913 454.1 168.045 455.884C166.684 455.554 165.385 455.758 164.364 456.795C157.518 463.751 149.838 460.061 149.73 462.135C149.698 462.733 149.993 463.209 150.365 463.725C153.354 467.878 159.223 470.908 166.195 471.227C171.667 471.478 173.495 469.861 173.952 469.426C174.113 469.273 174.474 468.943 174.864 468.479C175.177 468.751 175.482 468.998 175.788 469.223C175.908 473.205 176.124 477.182 176.443 481.152C176.183 481.177 175.935 481.223 175.75 481.244C173.1 481.537 172.207 477.648 168.203 476.228C166.873 475.756 164.311 475.241 162.961 476.228C162.767 476.37 162.104 476.904 161.074 477.368C160.466 477.642 160.001 477.769 159.816 477.824C158.174 478.312 156.652 479.653 155.623 480.56C153.69 482.264 152.723 483.116 152.269 484.664C152.126 485.151 151.724 486.521 152.269 487.856C152.526 488.486 153.123 489.424 155.414 490.364C156.775 490.922 160.745 492.55 165.477 490.82C166.555 490.426 165.732 490.567 169.88 488.312C173.143 486.538 175.052 485.689 175.331 483.98C175.429 483.379 175.33 482.646 175.75 482.384C175.984 482.238 176.266 482.309 176.548 482.419C176.822 485.611 177.165 488.797 177.581 491.977H173.847C168.889 491.977 164.44 494.978 162.239 499.809L148.272 530.453C147.39 532.387 146.924 534.55 146.924 536.709V615.506C146.924 623.275 152.736 629.595 159.88 629.595H192.481C199.625 629.595 205.437 623.275 205.437 615.506V542.95C205.437 541.181 205.136 539.449 204.542 537.802L191.23 500.919C189.616 496.446 186.119 493.281 181.939 492.302C183.28 490.573 184.622 488.846 185.976 487.125C187.68 488.019 189.554 488.753 191.57 489.268C196.901 490.631 198.975 489.416 199.5 489.082C200.001 488.763 202.173 487.467 202.542 485.305C202.581 485.073 202.596 484.839 202.593 484.603C208.055 489.431 210.904 491.811 212.985 491.017C214.775 490.335 215.796 488.099 216.381 486.093C216.992 486.186 217.64 486.28 218.331 486.38C225.81 487.467 229.58 487.97 231.021 486.044C233.017 483.377 231.123 478.236 230.601 476.819C229.466 473.739 227.721 471.865 226.637 470.725C225.229 469.244 221.216 465.025 214.898 464.462C213.525 464.34 212.291 464.434 211.034 464.72C210.596 464.284 210.134 463.857 209.625 463.452C208.655 462.679 207.698 462.107 206.667 461.66C208.248 459.776 209.834 457.898 211.427 456.028C211.679 456.152 211.918 456.273 212.138 456.384C217.357 459.02 218.503 461.601 223.522 462.96C225.799 463.576 228.377 464.274 229.015 463.225C230.149 461.361 225.337 453.691 217.9 448.502C218.402 447.924 218.905 447.349 219.407 446.773C220.087 447.083 220.686 447.386 221.197 447.643C226.415 450.279 227.562 452.86 232.581 454.219C234.857 454.836 237.435 455.534 238.073 454.484C239.085 452.821 235.363 446.534 229.267 441.512C230.942 440.934 233.162 440.293 236.037 440.375C240.398 440.5 243.804 442.22 245.826 443.242C251.045 445.877 252.192 448.459 257.21 449.817C259.487 450.434 262.065 451.132 262.703 450.082C264.388 447.311 252.941 431.698 239.249 430.5C238.186 430.407 237.23 430.415 236.367 430.484C236.247 430.269 236.118 430.048 235.981 429.824C240.614 429.986 249.662 428.545 257.363 434.425C259.584 436.121 263.898 440.109 271.117 443.386C273.424 444.433 274.585 444.948 274.904 444.518C276.048 442.978 266.537 430.309 253.155 424.068C247.85 421.594 244.572 421.359 242.24 421.734C242.599 421.289 242.95 420.829 243.287 420.367C248.497 414.81 253.774 409.31 259.097 403.885C258.84 404.751 258.848 405.213 259.129 405.549ZM192.262 474.719C186.377 472.647 179.25 473.76 177.392 476.118C177.13 474.028 176.902 471.936 176.715 469.839C179.396 471.468 182.194 471.904 187.501 472.675C189.761 473.003 191.677 473.276 193.298 473.447C193.516 474.089 193.748 474.666 194.018 475.219C194.049 475.283 194.082 475.344 194.114 475.407L194.067 475.465C193.463 475.18 192.857 474.929 192.262 474.719ZM176.626 446.649C176.793 446.043 176.797 445.398 176.669 444.733C176.852 442.325 177.081 439.923 177.351 437.529C177.344 437.896 177.451 438.263 177.597 438.66C179.233 443.129 183.654 447.418 189.68 449.643C190.804 450.058 191.768 450.32 192.599 450.48C192.233 451.172 191.953 451.847 191.768 452.472C189.713 450.677 187.069 449.372 184.068 450.756C183.252 451.133 182.767 452.511 182.346 454.16C179.574 454.212 177.258 454.841 176.155 455.905C176.161 455.461 176.159 455.018 176.17 454.574C176.232 452.04 176.347 449.515 176.508 446.997C176.553 446.884 176.592 446.769 176.626 446.649ZM176.163 459.68C176.282 459.946 176.413 460.211 176.549 460.475C176.426 460.376 176.299 460.27 176.17 460.155C176.166 459.997 176.165 459.838 176.163 459.68ZM180.895 492.107C180.573 492.061 180.247 492.028 179.918 492.007C179.159 487.911 178.459 483.817 177.872 479.715C179.415 482.377 181.931 484.814 185.138 486.662C183.715 488.472 182.304 490.289 180.895 492.107ZM205.735 461.297C203.728 460.596 201.373 460.261 198.114 459.849C197.288 458.6 196.436 457.681 195.807 457.019C195.466 456.66 194.942 455.949 194.264 455.118C196.021 454.504 198.643 453.412 202.349 453.518C205.716 453.614 208.511 454.661 210.542 455.604C208.933 457.494 207.332 459.393 205.735 461.297ZM217.11 447.965C215.138 446.669 212.999 445.56 210.747 444.78C210.966 444.777 211.18 444.77 211.407 444.777C214.2 444.857 216.598 445.591 218.494 446.377C218.033 446.906 217.571 447.435 217.11 447.965Z" fill="#CCCCCC"/>
</g>
<defs>
<clipPath id="clip0_580_3782">
<rect width="450" height="390" fill="white" transform="translate(135 251)"/>
</clipPath>
</defs>
</svg>
